<?xml version="1.0" encoding="UTF-8" standalone="no"?>
<!-- Created with Inkscape (http://www.inkscape.org/) -->

<svg
   width="28.91004mm"
   height="28.861887mm"
   viewBox="0 0 28.91004 28.861887"
   version="1.1"
   id="svg1"
   inkscape:version="1.4.2 (f4327f4, 2025-05-13)"
   sodipodi:docname="nukaicon.svg"
   xmlns:inkscape="http://www.inkscape.org/namespaces/inkscape"
   xmlns:sodipodi="http://sodipodi.sourceforge.net/DTD/sodipodi-0.dtd"
   xmlns:xlink="http://www.w3.org/1999/xlink"
   xmlns="http://www.w3.org/2000/svg"
   xmlns:svg="http://www.w3.org/2000/svg">
  <sodipodi:namedview
     id="namedview1"
     pagecolor="#ffffff"
     bordercolor="#000000"
     borderopacity="0.25"
     inkscape:showpageshadow="2"
     inkscape:pageopacity="0.0"
     inkscape:pagecheckerboard="0"
     inkscape:deskcolor="#d1d1d1"
     inkscape:document-units="mm"
     inkscape:zoom="0.71891835"
     inkscape:cx="-207.95129"
     inkscape:cy="47.98876"
     inkscape:window-width="1920"
     inkscape:window-height="1009"
     inkscape:window-x="-8"
     inkscape:window-y="-8"
     inkscape:window-maximized="1"
     inkscape:current-layer="layer1" />
  <defs
     id="defs1">
    <radialGradient
       inkscape:collect="always"
       xlink:href="#linearGradient4310"
       id="radialGradient4316"
       cx="459.61771"
       cy="186.56274"
       fx="459.61771"
       fy="186.56274"
       r="53.033009"
       gradientUnits="userSpaceOnUse"
       gradientTransform="matrix(0.97288219,0,0,0.96636921,12.465541,6.2233466)" />
    <linearGradient
       inkscape:collect="always"
       id="linearGradient4310">
      <stop
         style="stop-color:#ff0000;stop-opacity:1"
         offset="0"
         id="stop4312" />
      <stop
         id="stop4326"
         offset="0.92139602"
         style="stop-color:#ff0000;stop-opacity:1;" />
      <stop
         style="stop-color:#930000;stop-opacity:1"
         offset="1"
         id="stop4314" />
    </linearGradient>
    <linearGradient
       inkscape:collect="always"
       xlink:href="#linearGradient3246"
       id="linearGradient4054"
       gradientUnits="userSpaceOnUse"
       x1="445.35886"
       y1="137.52792"
       x2="451.12781"
       y2="136.86502" />
    <linearGradient
       inkscape:collect="always"
       id="linearGradient3246">
      <stop
         style="stop-color:#800000;stop-opacity:0"
         offset="0"
         id="stop3248" />
      <stop
         id="stop3254"
         offset="0.35938475"
         style="stop-color:#800000;stop-opacity:0.71764706;" />
      <stop
         style="stop-color:#800000;stop-opacity:0.48627451;"
         offset="0.74577534"
         id="stop4024" />
      <stop
         style="stop-color:#800000;stop-opacity:0;"
         offset="1"
         id="stop3250" />
    </linearGradient>
    <linearGradient
       inkscape:collect="always"
       xlink:href="#linearGradient4354"
       id="linearGradient4056"
       gradientUnits="userSpaceOnUse"
       gradientTransform="matrix(-0.97448683,0.22444473,0.22444473,0.97448683,865.48247,185.94739)"
       x1="445.32889"
       y1="137.35258"
       x2="451.2225"
       y2="137.11755" />
    <linearGradient
       id="linearGradient4354">
      <stop
         id="stop4356"
         offset="0"
         style="stop-color:#d40000;stop-opacity:0" />
      <stop
         style="stop-color:#ff4e4e;stop-opacity:1"
         offset="0.39748779"
         id="stop4358" />
      <stop
         id="stop4360"
         offset="0.74577534"
         style="stop-color:#ff4b4b;stop-opacity:0.62234044" />
      <stop
         id="stop4362"
         offset="1"
         style="stop-color:#d40000;stop-opacity:0" />
    </linearGradient>
    <linearGradient
       inkscape:collect="always"
       xlink:href="#linearGradient4058"
       id="linearGradient4076"
       gradientUnits="userSpaceOnUse"
       gradientTransform="matrix(-0.97448683,0.22444473,0.22444473,0.97448683,865.48247,185.94739)"
       x1="445.32889"
       y1="137.35258"
       x2="451.2225"
       y2="137.11755" />
    <linearGradient
       id="linearGradient4058">
      <stop
         style="stop-color:#d40000;stop-opacity:0"
         offset="0"
         id="stop4060" />
      <stop
         id="stop4062"
         offset="0.39748779"
         style="stop-color:#ff2a2a;stop-opacity:0.71808511" />
      <stop
         style="stop-color:#d40000;stop-opacity:0.37234041"
         offset="0.74577534"
         id="stop4064" />
      <stop
         style="stop-color:#d40000;stop-opacity:0"
         offset="1"
         id="stop4066" />
    </linearGradient>
    <linearGradient
       inkscape:collect="always"
       xlink:href="#linearGradient4344"
       id="linearGradient4140"
       gradientUnits="userSpaceOnUse"
       gradientTransform="matrix(-0.97448683,0.22444473,0.22444473,0.97448683,864.74622,185.94236)"
       x1="445.32889"
       y1="137.35258"
       x2="451.2225"
       y2="137.11755" />
    <linearGradient
       id="linearGradient4344">
      <stop
         id="stop4346"
         offset="0"
         style="stop-color:#d40000;stop-opacity:0" />
      <stop
         style="stop-color:#ff4f4f;stop-opacity:1"
         offset="0.39748779"
         id="stop4348" />
      <stop
         id="stop4350"
         offset="0.74577534"
         style="stop-color:#ff3e3e;stop-opacity:0.56914896" />
      <stop
         id="stop4352"
         offset="1"
         style="stop-color:#d40000;stop-opacity:0" />
    </linearGradient>
    <linearGradient
       y2="233.92966"
       x2="485.23904"
       y1="138.7466"
       x1="430.2851"
       gradientUnits="userSpaceOnUse"
       id="linearGradient4911-2"
       xlink:href="#linearGradient4332-0-4"
       inkscape:collect="always" />
    <linearGradient
       id="linearGradient4332-0-4"
       inkscape:collect="always">
      <stop
         id="stop4334-3-5"
         offset="0"
         style="stop-color:#ffd5d5;stop-opacity:1" />
      <stop
         id="stop4340-6-8"
         offset="1"
         style="stop-color:#ffaaaa;stop-opacity:0" />
    </linearGradient>
    <linearGradient
       inkscape:collect="always"
       xlink:href="#linearGradient3246"
       id="linearGradient1"
       gradientUnits="userSpaceOnUse"
       x1="445.35886"
       y1="137.52792"
       x2="451.12781"
       y2="136.86502" />
    <linearGradient
       inkscape:collect="always"
       xlink:href="#linearGradient3246"
       id="linearGradient2"
       gradientUnits="userSpaceOnUse"
       x1="445.35886"
       y1="137.52792"
       x2="451.12781"
       y2="136.86502" />
    <linearGradient
       inkscape:collect="always"
       xlink:href="#linearGradient4058"
       id="linearGradient3"
       gradientUnits="userSpaceOnUse"
       gradientTransform="matrix(-0.97448683,0.22444473,0.22444473,0.97448683,865.48247,185.94739)"
       x1="445.32889"
       y1="137.35258"
       x2="451.2225"
       y2="137.11755" />
    <linearGradient
       inkscape:collect="always"
       xlink:href="#linearGradient3246"
       id="linearGradient4"
       gradientUnits="userSpaceOnUse"
       x1="445.35886"
       y1="137.52792"
       x2="451.12781"
       y2="136.86502" />
    <linearGradient
       inkscape:collect="always"
       xlink:href="#linearGradient4058"
       id="linearGradient5"
       gradientUnits="userSpaceOnUse"
       gradientTransform="matrix(-0.97448683,0.22444473,0.22444473,0.97448683,865.48247,185.94739)"
       x1="445.32889"
       y1="137.35258"
       x2="451.2225"
       y2="137.11755" />
    <linearGradient
       inkscape:collect="always"
       xlink:href="#linearGradient3246"
       id="linearGradient6"
       gradientUnits="userSpaceOnUse"
       x1="445.35886"
       y1="137.52792"
       x2="451.12781"
       y2="136.86502" />
    <linearGradient
       inkscape:collect="always"
       xlink:href="#linearGradient4058"
       id="linearGradient7"
       gradientUnits="userSpaceOnUse"
       gradientTransform="matrix(-0.97448683,0.22444473,0.22444473,0.97448683,865.48247,185.94739)"
       x1="445.32889"
       y1="137.35258"
       x2="451.2225"
       y2="137.11755" />
    <linearGradient
       inkscape:collect="always"
       xlink:href="#linearGradient3246"
       id="linearGradient8"
       gradientUnits="userSpaceOnUse"
       x1="445.35886"
       y1="137.52792"
       x2="451.12781"
       y2="136.86502" />
    <linearGradient
       inkscape:collect="always"
       xlink:href="#linearGradient4058"
       id="linearGradient9"
       gradientUnits="userSpaceOnUse"
       gradientTransform="matrix(-0.97448683,0.22444473,0.22444473,0.97448683,865.48247,185.94739)"
       x1="445.32889"
       y1="137.35258"
       x2="451.2225"
       y2="137.11755" />
    <linearGradient
       inkscape:collect="always"
       xlink:href="#linearGradient3246"
       id="linearGradient10"
       gradientUnits="userSpaceOnUse"
       x1="445.35886"
       y1="137.52792"
       x2="451.12781"
       y2="136.86502" />
    <linearGradient
       inkscape:collect="always"
       xlink:href="#linearGradient3246"
       id="linearGradient11"
       gradientUnits="userSpaceOnUse"
       x1="445.35886"
       y1="137.52792"
       x2="451.12781"
       y2="136.86502" />
    <linearGradient
       inkscape:collect="always"
       xlink:href="#linearGradient4058"
       id="linearGradient12"
       gradientUnits="userSpaceOnUse"
       gradientTransform="matrix(-0.97448683,0.22444473,0.22444473,0.97448683,865.48247,185.94739)"
       x1="445.32889"
       y1="137.35258"
       x2="451.2225"
       y2="137.11755" />
    <linearGradient
       inkscape:collect="always"
       xlink:href="#linearGradient3246"
       id="linearGradient13"
       gradientUnits="userSpaceOnUse"
       x1="445.35886"
       y1="137.52792"
       x2="451.12781"
       y2="136.86502" />
    <linearGradient
       inkscape:collect="always"
       xlink:href="#linearGradient4058"
       id="linearGradient14"
       gradientUnits="userSpaceOnUse"
       gradientTransform="matrix(-0.97448683,0.22444473,0.22444473,0.97448683,865.48247,185.94739)"
       x1="445.32889"
       y1="137.35258"
       x2="451.2225"
       y2="137.11755" />
    <linearGradient
       inkscape:collect="always"
       xlink:href="#linearGradient3246"
       id="linearGradient15"
       gradientUnits="userSpaceOnUse"
       x1="445.35886"
       y1="137.52792"
       x2="451.12781"
       y2="136.86502" />
    <linearGradient
       inkscape:collect="always"
       xlink:href="#linearGradient4058"
       id="linearGradient16"
       gradientUnits="userSpaceOnUse"
       gradientTransform="matrix(-0.97448683,0.22444473,0.22444473,0.97448683,865.48247,185.94739)"
       x1="445.32889"
       y1="137.35258"
       x2="451.2225"
       y2="137.11755" />
    <linearGradient
       inkscape:collect="always"
       xlink:href="#linearGradient3246"
       id="linearGradient17"
       gradientUnits="userSpaceOnUse"
       x1="445.35886"
       y1="137.52792"
       x2="451.12781"
       y2="136.86502" />
    <linearGradient
       inkscape:collect="always"
       xlink:href="#linearGradient4058"
       id="linearGradient18"
       gradientUnits="userSpaceOnUse"
       gradientTransform="matrix(-0.97448683,0.22444473,0.22444473,0.97448683,865.48247,185.94739)"
       x1="445.32889"
       y1="137.35258"
       x2="451.2225"
       y2="137.11755" />
    <linearGradient
       inkscape:collect="always"
       xlink:href="#linearGradient3246"
       id="linearGradient19"
       gradientUnits="userSpaceOnUse"
       x1="445.35886"
       y1="137.52792"
       x2="451.12781"
       y2="136.86502" />
    <linearGradient
       inkscape:collect="always"
       xlink:href="#linearGradient4058"
       id="linearGradient20"
       gradientUnits="userSpaceOnUse"
       gradientTransform="matrix(-0.97448683,0.22444473,0.22444473,0.97448683,865.48247,185.94739)"
       x1="445.32889"
       y1="137.35258"
       x2="451.2225"
       y2="137.11755" />
    <linearGradient
       inkscape:collect="always"
       xlink:href="#linearGradient3246"
       id="linearGradient21"
       gradientUnits="userSpaceOnUse"
       x1="445.35886"
       y1="137.52792"
       x2="451.12781"
       y2="136.86502" />
    <linearGradient
       inkscape:collect="always"
       xlink:href="#linearGradient4058"
       id="linearGradient22"
       gradientUnits="userSpaceOnUse"
       gradientTransform="matrix(-0.97448683,0.22444473,0.22444473,0.97448683,865.48247,185.94739)"
       x1="445.32889"
       y1="137.35258"
       x2="451.2225"
       y2="137.11755" />
    <linearGradient
       inkscape:collect="always"
       xlink:href="#linearGradient3246"
       id="linearGradient23"
       gradientUnits="userSpaceOnUse"
       x1="445.35886"
       y1="137.52792"
       x2="451.12781"
       y2="136.86502" />
    <linearGradient
       inkscape:collect="always"
       xlink:href="#linearGradient4058"
       id="linearGradient24"
       gradientUnits="userSpaceOnUse"
       gradientTransform="matrix(-0.97448683,0.22444473,0.22444473,0.97448683,865.48247,185.94739)"
       x1="445.32889"
       y1="137.35258"
       x2="451.2225"
       y2="137.11755" />
    <linearGradient
       inkscape:collect="always"
       xlink:href="#linearGradient3246"
       id="linearGradient25"
       gradientUnits="userSpaceOnUse"
       x1="445.35886"
       y1="137.52792"
       x2="451.12781"
       y2="136.86502" />
    <linearGradient
       inkscape:collect="always"
       xlink:href="#linearGradient4058"
       id="linearGradient26"
       gradientUnits="userSpaceOnUse"
       gradientTransform="matrix(-0.97448683,0.22444473,0.22444473,0.97448683,865.48247,185.94739)"
       x1="445.32889"
       y1="137.35258"
       x2="451.2225"
       y2="137.11755" />
    <linearGradient
       inkscape:collect="always"
       xlink:href="#linearGradient3246"
       id="linearGradient27"
       gradientUnits="userSpaceOnUse"
       x1="445.35886"
       y1="137.52792"
       x2="451.12781"
       y2="136.86502" />
    <linearGradient
       inkscape:collect="always"
       xlink:href="#linearGradient4058"
       id="linearGradient28"
       gradientUnits="userSpaceOnUse"
       gradientTransform="matrix(-0.97448683,0.22444473,0.22444473,0.97448683,865.48247,185.94739)"
       x1="445.32889"
       y1="137.35258"
       x2="451.2225"
       y2="137.11755" />
    <linearGradient
       inkscape:collect="always"
       xlink:href="#linearGradient3246"
       id="linearGradient29"
       gradientUnits="userSpaceOnUse"
       x1="445.35886"
       y1="137.52792"
       x2="451.12781"
       y2="136.86502" />
    <linearGradient
       inkscape:collect="always"
       xlink:href="#linearGradient4058"
       id="linearGradient30"
       gradientUnits="userSpaceOnUse"
       gradientTransform="matrix(-0.97448683,0.22444473,0.22444473,0.97448683,865.48247,185.94739)"
       x1="445.32889"
       y1="137.35258"
       x2="451.2225"
       y2="137.11755" />
    <linearGradient
       inkscape:collect="always"
       xlink:href="#linearGradient3246"
       id="linearGradient31"
       gradientUnits="userSpaceOnUse"
       x1="445.35886"
       y1="137.52792"
       x2="451.12781"
       y2="136.86502" />
    <linearGradient
       inkscape:collect="always"
       xlink:href="#linearGradient4058"
       id="linearGradient32"
       gradientUnits="userSpaceOnUse"
       gradientTransform="matrix(-0.97448683,0.22444473,0.22444473,0.97448683,865.48247,185.94739)"
       x1="445.32889"
       y1="137.35258"
       x2="451.2225"
       y2="137.11755" />
    <linearGradient
       inkscape:collect="always"
       xlink:href="#linearGradient3246"
       id="linearGradient33"
       gradientUnits="userSpaceOnUse"
       x1="445.35886"
       y1="137.52792"
       x2="451.12781"
       y2="136.86502" />
    <linearGradient
       inkscape:collect="always"
       xlink:href="#linearGradient4058"
       id="linearGradient34"
       gradientUnits="userSpaceOnUse"
       gradientTransform="matrix(-0.97448683,0.22444473,0.22444473,0.97448683,865.48247,185.94739)"
       x1="445.32889"
       y1="137.35258"
       x2="451.2225"
       y2="137.11755" />
    <linearGradient
       inkscape:collect="always"
       xlink:href="#linearGradient3246"
       id="linearGradient35"
       gradientUnits="userSpaceOnUse"
       x1="445.35886"
       y1="137.52792"
       x2="451.12781"
       y2="136.86502" />
    <linearGradient
       inkscape:collect="always"
       xlink:href="#linearGradient4058"
       id="linearGradient36"
       gradientUnits="userSpaceOnUse"
       gradientTransform="matrix(-0.97448683,0.22444473,0.22444473,0.97448683,865.48247,185.94739)"
       x1="445.32889"
       y1="137.35258"
       x2="451.2225"
       y2="137.11755" />
    <linearGradient
       inkscape:collect="always"
       xlink:href="#linearGradient3246"
       id="linearGradient37"
       gradientUnits="userSpaceOnUse"
       x1="445.35886"
       y1="137.52792"
       x2="451.12781"
       y2="136.86502" />
    <linearGradient
       inkscape:collect="always"
       xlink:href="#linearGradient4058"
       id="linearGradient38"
       gradientUnits="userSpaceOnUse"
       gradientTransform="matrix(-0.97448683,0.22444473,0.22444473,0.97448683,865.48247,185.94739)"
       x1="445.32889"
       y1="137.35258"
       x2="451.2225"
       y2="137.11755" />
    <linearGradient
       inkscape:collect="always"
       xlink:href="#linearGradient3246"
       id="linearGradient39"
       gradientUnits="userSpaceOnUse"
       x1="445.35886"
       y1="137.52792"
       x2="451.12781"
       y2="136.86502" />
    <linearGradient
       inkscape:collect="always"
       xlink:href="#linearGradient4058"
       id="linearGradient40"
       gradientUnits="userSpaceOnUse"
       gradientTransform="matrix(-0.97448683,0.22444473,0.22444473,0.97448683,865.48247,185.94739)"
       x1="445.32889"
       y1="137.35258"
       x2="451.2225"
       y2="137.11755" />
    <linearGradient
       inkscape:collect="always"
       xlink:href="#linearGradient3246"
       id="linearGradient41"
       gradientUnits="userSpaceOnUse"
       x1="445.35886"
       y1="137.52792"
       x2="451.12781"
       y2="136.86502" />
    <linearGradient
       inkscape:collect="always"
       xlink:href="#linearGradient4058"
       id="linearGradient42"
       gradientUnits="userSpaceOnUse"
       gradientTransform="matrix(-0.97448683,0.22444473,0.22444473,0.97448683,865.48247,185.94739)"
       x1="445.32889"
       y1="137.35258"
       x2="451.2225"
       y2="137.11755" />
    <linearGradient
       inkscape:collect="always"
       xlink:href="#linearGradient3246"
       id="linearGradient43"
       gradientUnits="userSpaceOnUse"
       x1="445.35886"
       y1="137.52792"
       x2="451.12781"
       y2="136.86502" />
    <linearGradient
       inkscape:collect="always"
       xlink:href="#linearGradient4058"
       id="linearGradient44"
       gradientUnits="userSpaceOnUse"
       gradientTransform="matrix(-0.97448683,0.22444473,0.22444473,0.97448683,865.48247,185.94739)"
       x1="445.32889"
       y1="137.35258"
       x2="451.2225"
       y2="137.11755" />
  </defs>
  <g
     inkscape:label="Слой 1"
     inkscape:groupmode="layer"
     id="layer1"
     transform="translate(-160.07291,-106.3625)">
    <g
       id="g4964"
       transform="matrix(0.26458333,0,0,0.26458333,52.072277,-3.62521)">
      <path
         id="path3122"
         transform="translate(4.2857208,283.92886)"
         d="m 459.03125,131.84375 c -1.14714,-0.0211 -1.80965,0.53635 -3.25,1.25 -1.44035,0.71369 -3.15625,0.875 -3.15625,0.875 L 452.6875,134 c -0.78827,0.0844 -1.56629,0.19371 -2.34375,0.3125 v -0.0312 c 0,0 -1.70526,0.2853 -3.28125,-0.0312 -1.18198,-0.23739 -1.9279,-0.5158 -2.6875,-0.5 -0.2532,0.005 -0.50559,0.0457 -0.78125,0.125 -1.10257,0.31729 -1.74128,1.2632 -2.4375,1.96875 -0.66699,0.67648 -1.72122,1.37802 -1.8125,1.4375 -0.004,0.003 -0.0625,0.0312 -0.0625,0.0312 -0.72291,0.28169 -1.44928,0.56266 -2.15625,0.875 l 0.0312,-0.0625 c 0,0 -1.58327,0.71042 -3.1875,0.8125 -1.60421,0.10216 -2.45458,-0.0606 -3.4375,0.53125 -0.98289,0.59184 -1.35386,1.7008 -1.84375,2.5625 -0.43696,0.76935 -1.11932,1.59365 -1.28125,1.78125 -0.68473,0.4998 -1.37215,0.99972 -2.03125,1.53125 l 0.0312,-0.0937 c 0,0 -1.3206,1.11119 -2.84375,1.625 -1.52311,0.51388 -2.39125,0.58016 -3.1875,1.40625 -0.79622,0.82606 -0.87483,1.97837 -1.125,2.9375 -0.21806,0.83746 -0.65672,1.77397 -0.78125,2.03125 -0.5352,0.66141 -1.0593,1.34392 -1.5625,2.03125 v -0.0937 c 0,0 -1.00549,1.42197 -2.34375,2.3125 -1.33821,0.89057 -2.13219,1.18347 -2.6875,2.1875 -0.55529,1.00399 -0.35035,2.1338 -0.34375,3.125 0.006,0.87663 -0.19795,1.92554 -0.25,2.1875 -0.33393,0.7522 -0.63832,1.51096 -0.9375,2.28125 l -0.0312,-0.0625 c 0,0 -0.59408,1.60595 -1.65625,2.8125 -1.06212,1.20658 -1.78597,1.69896 -2.0625,2.8125 -0.27652,1.1135 0.23708,2.13803 0.5,3.09375 0.22265,0.80807 0.28943,1.79232 0.3125,2.125 -0.13201,0.84024 -0.25202,1.70954 -0.34375,2.5625 l -0.0312,-0.0625 c 0,0 -0.1613,1.7159 -0.875,3.15625 -0.71364,1.44036 -1.2711,2.10284 -1.25,3.25 0.0211,1.14713 0.77993,2.01989 1.28125,2.875 0.4331,0.73806 0.77811,1.68345 0.875,1.96875 0.0896,0.86125 0.18185,1.71411 0.3125,2.5625 l -0.0312,-0.0312 c 0,0 0.28529,1.67401 -0.0312,3.25 -0.31654,1.57598 -0.69229,2.36614 -0.375,3.46875 0.31729,1.10258 1.29445,1.74128 2,2.4375 0.62123,0.61251 1.19313,1.49096 1.34375,1.71875 0.30125,0.78098 0.63181,1.55003 0.96875,2.3125 L 410.1875,207.5 c 0,0 0.71039,1.58327 0.8125,3.1875 0.10214,1.6042 -0.0294,2.45458 0.5625,3.4375 0.59184,0.98289 1.66955,1.35386 2.53125,1.84375 0.81563,0.46326 1.74096,1.28249 1.84375,1.375 0.47885,0.65307 0.96097,1.30784 1.46875,1.9375 l -0.0625,-0.0312 c 0,0 1.07992,1.32061 1.59375,2.84375 0.51386,1.5231 0.5802,2.39125 1.40625,3.1875 0.82606,0.79622 2.00962,0.87482 2.96875,1.125 0.90214,0.23491 1.96119,0.80503 2.09375,0.875 0.008,0.004 0.0937,0.0312 0.0937,0.0312 0.60698,0.48692 1.21514,0.97739 1.84375,1.4375 h -0.0625 c 0,0 1.39071,1.0055 2.28125,2.34375 0.89055,1.33821 1.18352,2.16343 2.1875,2.71875 1.00399,0.55529 2.1338,0.31908 3.125,0.3125 0.83708,-0.006 1.79785,0.15496 2.125,0.21875 0.77115,0.34326 1.55356,0.66204 2.34375,0.96875 l -0.0625,0.0312 c 0,0 1.60594,0.62534 2.8125,1.6875 1.20656,1.06212 1.699,1.7547 2.8125,2.03125 1.1135,0.27652 2.16927,-0.2371 3.125,-0.5 0.86437,-0.23778 1.96255,-0.30257 2.1875,-0.3125 0.81927,0.12724 1.63743,0.25479 2.46875,0.34375 l -0.0625,0.0312 c 0,0 1.7159,0.16131 3.15625,0.875 1.44035,0.71365 2.10286,1.27107 3.25,1.25 1.14713,-0.0211 2.01988,-0.77995 2.875,-1.28125 0.75338,-0.44166 1.74324,-0.78818 2,-0.875 0.8635,-0.0908 1.74321,-0.21165 2.59375,-0.34375 0.26161,0.006 1.31062,0.0487 2.15625,0.28125 0.95564,0.26331 2.01149,0.80776 3.125,0.53125 1.11351,-0.27653 1.60595,-0.96915 2.8125,-2.03125 1.20657,-1.06218 2.84375,-1.6875 2.84375,-1.6875 l -0.0937,-0.0312 c 0.77958,-0.30228 1.55143,-0.59963 2.3125,-0.9375 0.22103,-0.0501 1.29173,-0.28718 2.1875,-0.28125 0.99122,0.007 2.15225,0.27404 3.15625,-0.28125 1.00399,-0.5553 1.29695,-1.38056 2.1875,-2.71875 0.89054,-1.33827 2.28125,-2.34375 2.28125,-2.34375 h -0.0937 c 0.6337,-0.46394 1.26329,-0.94632 1.875,-1.4375 0,0 1.22836,-0.65604 2.1875,-0.90625 0.95926,-0.24977 2.11143,-0.32878 2.9375,-1.125 0.82606,-0.79623 0.92364,-1.63316 1.4375,-3.15625 0.51382,-1.52315 1.59375,-2.875 1.59375,-2.875 l -0.0937,0.0312 c 0.50778,-0.62966 0.9899,-1.28443 1.46875,-1.9375 0.10281,-0.0925 1.02832,-0.91139 1.84375,-1.375 0.86192,-0.48954 1.97065,-0.86086 2.5625,-1.84375 0.59184,-0.9829 0.42911,-1.83331 0.53125,-3.4375 0.1021,-1.60423 0.84375,-3.15625 0.84375,-3.15625 l -0.125,0.0625 c 0.34527,-0.77866 0.66074,-1.57699 0.96875,-2.375 0.10917,-0.17287 0.72965,-1.11314 1.375,-1.75 0.70585,-0.69594 1.68271,-1.33492 2,-2.4375 0.31728,-1.10259 -0.0272,-1.89279 -0.34375,-3.46875 -0.31658,-1.57599 -0.0312,-3.28125 -0.0312,-3.28125 l -0.0625,0.0625 c 0.13038,-0.84992 0.25458,-1.69969 0.34375,-2.5625 0.003,-0.031 -0.003,-0.0627 0,-0.0937 0.12623,-0.38603 0.41998,-1.17417 0.8125,-1.84375 0.50168,-0.85492 1.29139,-1.72787 1.3125,-2.875 0.0211,-1.14714 -0.53635,-1.80967 -1.25,-3.25 -0.71369,-1.44035 -0.875,-3.15625 -0.875,-3.15625 l -0.0312,0.0625 c -0.0873,-0.81177 -0.21994,-1.63722 -0.34375,-2.4375 0.01,-0.22495 0.0747,-1.32313 0.3125,-2.1875 0.26331,-0.95563 0.80776,-2.01149 0.53125,-3.125 -0.27655,-1.1135 -1.00038,-1.60595 -2.0625,-2.8125 -1.06216,-1.20655 -1.65625,-2.8125 -1.65625,-2.8125 l -0.0312,0.0937 c -0.30263,-0.78229 -0.6303,-1.54882 -0.96875,-2.3125 -0.038,-0.1844 -0.25607,-1.3046 -0.25,-2.21875 0.007,-0.99121 0.24279,-2.121 -0.3125,-3.125 -0.55532,-1.00398 -1.38054,-1.32821 -2.71875,-2.21875 -1.33825,-0.89053 -2.34375,-2.28125 -2.34375,-2.28125 v 0.0937 c -0.4591,-0.6271 -0.95172,-1.23818 -1.4375,-1.84375 0,0 -0.0566,-0.0825 -0.0625,-0.0937 -0.0797,-0.15136 -0.61086,-1.20088 -0.84375,-2.09375 -0.25019,-0.95914 -0.29752,-2.14269 -1.09375,-2.96875 -0.79625,-0.82605 -1.6644,-0.8924 -3.1875,-1.40625 -1.52314,-0.51382 -2.84375,-1.625 -2.84375,-1.625 l 0.0312,0.125 c -0.61672,-0.49819 -1.26702,-0.96708 -1.90625,-1.4375 0,0 -0.0573,-0.0568 -0.0625,-0.0625 -0.0925,-0.0998 -0.91141,-0.99706 -1.375,-1.8125 -0.48991,-0.8617 -0.8296,-2.00191 -1.8125,-2.59375 -0.98292,-0.59182 -1.8333,-0.42912 -3.4375,-0.53125 -1.60423,-0.1021 -3.1875,-0.8125 -3.1875,-0.8125 l 0.0625,0.0937 c -0.77209,-0.34268 -1.55262,-0.6627 -2.34375,-0.96875 -0.1443,-0.0908 -1.13314,-0.71822 -1.78125,-1.375 -0.69624,-0.70554 -1.33492,-1.68272 -2.4375,-2 -0.27565,-0.0793 -0.52805,-0.11973 -0.78125,-0.125 -0.75959,-0.0158 -1.50552,0.26259 -2.6875,0.5 -1.57599,0.31659 -3.25,0.0312 -3.25,0.0312 v 0.0312 c -0.82889,-0.12665 -1.6901,-0.22503 -2.53125,-0.3125 -0.31473,-0.10066 -1.21642,-0.42102 -1.9375,-0.84375 -0.85512,-0.5013 -1.72787,-1.2914 -2.875,-1.3125 z"
         style="color:#000000;display:inline;overflow:visible;visibility:visible;opacity:1;fill:#aa0000;fill-opacity:1;fill-rule:nonzero;stroke:none;stroke-width:4;marker:none;enable-background:accumulate" />
      <circle
         style="color:#000000;display:inline;overflow:visible;visibility:visible;opacity:1;fill:url(#radialGradient4316);fill-opacity:1;fill-rule:nonzero;stroke:none;stroke-width:4;marker:none;enable-background:accumulate"
         id="path3211"
         transform="matrix(0.86309521,0,0,0.86309521,65.947118,308.9982)"
         cx="459.61942"
         cy="186.80443"
         r="53.033009" />
      <g
         id="g4040">
        <path
           sodipodi:nodetypes="cscssc"
           style="fill:url(#linearGradient1);fill-opacity:1;stroke:none"
           d="m 444.27773,133.80298 c 0,0 0.59977,8.27062 5.6821,7.54458 6.4013,-0.91446 3.6618,-7.51301 3.6618,-7.51301 0,0 -3.72493,0.82075 -5.42957,0.56821 -1.70463,-0.25254 -2.90418,-0.69448 -3.53553,-0.69448 -0.63134,0 -0.3788,0.0947 -0.3788,0.0947 z"
           id="path3244"
           inkscape:connector-curvature="0"
           transform="translate(4.2857208,283.92886)" />
        <path
           sodipodi:nodetypes="csccccc"
           inkscape:connector-curvature="0"
           id="path4026"
           d="m 463.0072,415.90669 c 0,0 0.40708,8.38785 -4.27994,8.77314 -6.44455,0.52977 -5.25463,-6.49946 -5.25463,-6.49946 0,0 3.81411,-0.0362 5.41857,-0.66492 1.60447,-0.6287 2.39011,-1.29703 3.00535,-1.43872 0.61523,-0.1417 1.11065,-0.17 1.11065,-0.17 z"
           style="fill:url(#linearGradient4056);fill-opacity:1;stroke:none" />
      </g>
      <g
         transform="rotate(15.572215,463.01454,469.95212)"
         id="g4068">
        <path
           transform="translate(4.2857208,283.92886)"
           inkscape:connector-curvature="0"
           id="path4070"
           d="m 444.27773,133.80298 c 0,0 0.59977,8.27062 5.6821,7.54458 6.4013,-0.91446 3.6618,-7.51301 3.6618,-7.51301 0,0 -3.72493,0.82075 -5.42957,0.56821 -1.70463,-0.25254 -2.90418,-0.69448 -3.53553,-0.69448 -0.63134,0 -0.3788,0.0947 -0.3788,0.0947 z"
           style="fill:url(#linearGradient2);fill-opacity:1;stroke:none"
           sodipodi:nodetypes="cscssc" />
        <path
           style="fill:url(#linearGradient3);fill-opacity:1;stroke:none"
           d="m 463.0072,415.90669 c 0,0 0.40708,8.38785 -4.27994,8.77314 -6.44455,0.52977 -5.25463,-6.49946 -5.25463,-6.49946 0,0 3.81411,-0.0362 5.41857,-0.66492 1.60447,-0.6287 2.39011,-1.29703 3.00535,-1.43872 0.61523,-0.1417 1.11065,-0.17 1.11065,-0.17 z"
           id="path4072"
           inkscape:connector-curvature="0"
           sodipodi:nodetypes="csccccc" />
      </g>
      <g
         transform="matrix(1,0,0,-1,0,940.48745)"
         id="g4090">
        <path
           transform="translate(4.2857208,283.92886)"
           inkscape:connector-curvature="0"
           id="path4092"
           d="m 444.27773,133.80298 c 0,0 0.59977,8.27062 5.6821,7.54458 6.4013,-0.91446 3.6618,-7.51301 3.6618,-7.51301 0,0 -3.72493,0.82075 -5.42957,0.56821 -1.70463,-0.25254 -2.90418,-0.69448 -3.53553,-0.69448 -0.63134,0 -0.3788,0.0947 -0.3788,0.0947 z"
           style="fill:url(#linearGradient4);fill-opacity:1;stroke:none"
           sodipodi:nodetypes="cscssc" />
        <path
           style="fill:url(#linearGradient5);fill-opacity:1;stroke:none"
           d="m 463.0072,415.90669 c 0,0 0.40708,8.38785 -4.27994,8.77314 -6.44455,0.52977 -5.25463,-6.49946 -5.25463,-6.49946 0,0 3.81411,-0.0362 5.41857,-0.66492 1.60447,-0.6287 2.39011,-1.29703 3.00535,-1.43872 0.61523,-0.1417 1.11065,-0.17 1.11065,-0.17 z"
           id="path4094"
           inkscape:connector-curvature="0"
           sodipodi:nodetypes="csccccc" />
      </g>
      <g
         id="g4096"
         transform="matrix(0.96329287,-0.26845272,-0.26845272,-0.96329287,143.15586,1047.5344)">
        <path
           sodipodi:nodetypes="cscssc"
           style="fill:url(#linearGradient6);fill-opacity:1;stroke:none"
           d="m 444.27773,133.80298 c 0,0 0.59977,8.27062 5.6821,7.54458 6.4013,-0.91446 3.6618,-7.51301 3.6618,-7.51301 0,0 -3.72493,0.82075 -5.42957,0.56821 -1.70463,-0.25254 -2.90418,-0.69448 -3.53553,-0.69448 -0.63134,0 -0.3788,0.0947 -0.3788,0.0947 z"
           id="path4098"
           inkscape:connector-curvature="0"
           transform="translate(4.2857208,283.92886)" />
        <path
           sodipodi:nodetypes="csccccc"
           inkscape:connector-curvature="0"
           id="path4100"
           d="m 463.0072,415.90669 c 0,0 0.40708,8.38785 -4.27994,8.77314 -6.44455,0.52977 -5.25463,-6.49946 -5.25463,-6.49946 0,0 3.81411,-0.0362 5.41857,-0.66492 1.60447,-0.6287 2.39011,-1.29703 3.00535,-1.43872 0.61523,-0.1417 1.11065,-0.17 1.11065,-0.17 z"
           style="fill:url(#linearGradient7);fill-opacity:1;stroke:none" />
      </g>
      <g
         transform="rotate(-30,462.99525,470.29359)"
         id="g4110">
        <path
           transform="translate(4.2857208,283.92886)"
           inkscape:connector-curvature="0"
           id="path4112"
           d="m 444.27773,133.80298 c 0,0 0.59977,8.27062 5.6821,7.54458 6.4013,-0.91446 3.6618,-7.51301 3.6618,-7.51301 0,0 -3.72493,0.82075 -5.42957,0.56821 -1.70463,-0.25254 -2.90418,-0.69448 -3.53553,-0.69448 -0.63134,0 -0.3788,0.0947 -0.3788,0.0947 z"
           style="fill:url(#linearGradient8);fill-opacity:1;stroke:none"
           sodipodi:nodetypes="cscssc" />
        <path
           style="fill:url(#linearGradient9);fill-opacity:1;stroke:none"
           d="m 463.0072,415.90669 c 0,0 0.40708,8.38785 -4.27994,8.77314 -6.44455,0.52977 -5.25463,-6.49946 -5.25463,-6.49946 0,0 3.81411,-0.0362 5.41857,-0.66492 1.60447,-0.6287 2.39011,-1.29703 3.00535,-1.43872 0.61523,-0.1417 1.11065,-0.17 1.11065,-0.17 z"
           id="path4114"
           inkscape:connector-curvature="0"
           sodipodi:nodetypes="csccccc" />
      </g>
      <g
         id="g4116"
         transform="rotate(-18.550238,459.85062,459.64608)">
        <path
           sodipodi:nodetypes="cscssc"
           style="fill:url(#linearGradient10);fill-opacity:1;stroke:none"
           d="m 444.27773,133.80298 c 0,0 0.59977,8.27062 5.6821,7.54458 6.4013,-0.91446 3.6618,-7.51301 3.6618,-7.51301 0,0 -3.72493,0.82075 -5.42957,0.56821 -1.70463,-0.25254 -2.90418,-0.69448 -3.53553,-0.69448 -0.63134,0 -0.3788,0.0947 -0.3788,0.0947 z"
           id="path4118"
           inkscape:connector-curvature="0"
           transform="translate(4.2857208,283.92886)" />
        <path
           sodipodi:nodetypes="csccccc"
           inkscape:connector-curvature="0"
           id="path4120"
           d="m 462.27095,415.90166 c 0,0 0.40708,8.38785 -4.27994,8.77314 -6.44455,0.52977 -5.25463,-6.49946 -5.25463,-6.49946 0,0 3.81411,-0.0362 5.41857,-0.66492 1.60447,-0.6287 2.39011,-1.29703 3.00535,-1.43872 0.61523,-0.1417 1.11065,-0.17 1.11065,-0.17 z"
           style="fill:url(#linearGradient4140);fill-opacity:1;stroke:none" />
      </g>
      <g
         id="g4122"
         transform="matrix(0.86602541,-0.50000001,-0.50000001,-0.86602541,297.12652,1108.991)">
        <path
           sodipodi:nodetypes="cscssc"
           style="fill:url(#linearGradient11);fill-opacity:1;stroke:none"
           d="m 444.27773,133.80298 c 0,0 0.59977,8.27062 5.6821,7.54458 6.4013,-0.91446 3.6618,-7.51301 3.6618,-7.51301 0,0 -3.72493,0.82075 -5.42957,0.56821 -1.70463,-0.25254 -2.90418,-0.69448 -3.53553,-0.69448 -0.63134,0 -0.3788,0.0947 -0.3788,0.0947 z"
           id="path4124"
           inkscape:connector-curvature="0"
           transform="translate(4.2857208,283.92886)" />
        <path
           sodipodi:nodetypes="csccccc"
           inkscape:connector-curvature="0"
           id="path4126"
           d="m 463.0072,415.90669 c 0,0 0.40708,8.38785 -4.27994,8.77314 -6.44455,0.52977 -5.25463,-6.49946 -5.25463,-6.49946 0,0 3.81411,-0.0362 5.41857,-0.66492 1.60447,-0.6287 2.39011,-1.29703 3.00535,-1.43872 0.61523,-0.1417 1.11065,-0.17 1.11065,-0.17 z"
           style="fill:url(#linearGradient12);fill-opacity:1;stroke:none" />
      </g>
      <g
         transform="matrix(0.70000973,-0.71413331,-0.71413331,-0.70000973,474.62661,1130.1185)"
         id="g4128">
        <path
           transform="translate(4.2857208,283.92886)"
           inkscape:connector-curvature="0"
           id="path4130"
           d="m 444.27773,133.80298 c 0,0 0.59977,8.27062 5.6821,7.54458 6.4013,-0.91446 3.6618,-7.51301 3.6618,-7.51301 0,0 -3.72493,0.82075 -5.42957,0.56821 -1.70463,-0.25254 -2.90418,-0.69448 -3.53553,-0.69448 -0.63134,0 -0.3788,0.0947 -0.3788,0.0947 z"
           style="fill:url(#linearGradient13);fill-opacity:1;stroke:none"
           sodipodi:nodetypes="cscssc" />
        <path
           style="fill:url(#linearGradient14);fill-opacity:1;stroke:none"
           d="m 463.0072,415.90669 c 0,0 0.40708,8.38785 -4.27994,8.77314 -6.44455,0.52977 -5.25463,-6.49946 -5.25463,-6.49946 0,0 3.81411,-0.0362 5.41857,-0.66492 1.60447,-0.6287 2.39011,-1.29703 3.00535,-1.43872 0.61523,-0.1417 1.11065,-0.17 1.11065,-0.17 z"
           id="path4132"
           inkscape:connector-curvature="0"
           sodipodi:nodetypes="csccccc" />
      </g>
      <g
         id="g4150"
         transform="rotate(-60,462.95306,470.29262)">
        <path
           sodipodi:nodetypes="cscssc"
           style="fill:url(#linearGradient15);fill-opacity:1;stroke:none"
           d="m 444.27773,133.80298 c 0,0 0.59977,8.27062 5.6821,7.54458 6.4013,-0.91446 3.6618,-7.51301 3.6618,-7.51301 0,0 -3.72493,0.82075 -5.42957,0.56821 -1.70463,-0.25254 -2.90418,-0.69448 -3.53553,-0.69448 -0.63134,0 -0.3788,0.0947 -0.3788,0.0947 z"
           id="path4152"
           inkscape:connector-curvature="0"
           transform="translate(4.2857208,283.92886)" />
        <path
           sodipodi:nodetypes="csccccc"
           inkscape:connector-curvature="0"
           id="path4154"
           d="m 463.0072,415.90669 c 0,0 0.40708,8.38785 -4.27994,8.77314 -6.44455,0.52977 -5.25463,-6.49946 -5.25463,-6.49946 0,0 3.81411,-0.0362 5.41857,-0.66492 1.60447,-0.6287 2.39011,-1.29703 3.00535,-1.43872 0.61523,-0.1417 1.11065,-0.17 1.11065,-0.17 z"
           style="fill:url(#linearGradient16);fill-opacity:1;stroke:none" />
      </g>
      <g
         transform="rotate(-44.427785,462.99499,470.4093)"
         id="g4156">
        <path
           transform="translate(4.2857208,283.92886)"
           inkscape:connector-curvature="0"
           id="path4158"
           d="m 444.27773,133.80298 c 0,0 0.59977,8.27062 5.6821,7.54458 6.4013,-0.91446 3.6618,-7.51301 3.6618,-7.51301 0,0 -3.72493,0.82075 -5.42957,0.56821 -1.70463,-0.25254 -2.90418,-0.69448 -3.53553,-0.69448 -0.63134,0 -0.3788,0.0947 -0.3788,0.0947 z"
           style="fill:url(#linearGradient17);fill-opacity:1;stroke:none"
           sodipodi:nodetypes="cscssc" />
        <path
           style="fill:url(#linearGradient18);fill-opacity:1;stroke:none"
           d="m 463.0072,415.90669 c 0,0 0.40708,8.38785 -4.27994,8.77314 -6.44455,0.52977 -5.25463,-6.49946 -5.25463,-6.49946 0,0 3.81411,-0.0362 5.41857,-0.66492 1.60447,-0.6287 2.39011,-1.29703 3.00535,-1.43872 0.61523,-0.1417 1.11065,-0.17 1.11065,-0.17 z"
           id="path4160"
           inkscape:connector-curvature="0"
           sodipodi:nodetypes="csccccc" />
      </g>
      <g
         transform="matrix(0.5,-0.86602541,-0.86602541,-0.5,638.67716,1106.3191)"
         id="g4162">
        <path
           transform="translate(4.2857208,283.92886)"
           inkscape:connector-curvature="0"
           id="path4164"
           d="m 444.27773,133.80298 c 0,0 0.59977,8.27062 5.6821,7.54458 6.4013,-0.91446 3.6618,-7.51301 3.6618,-7.51301 0,0 -3.72493,0.82075 -5.42957,0.56821 -1.70463,-0.25254 -2.90418,-0.69448 -3.53553,-0.69448 -0.63134,0 -0.3788,0.0947 -0.3788,0.0947 z"
           style="fill:url(#linearGradient19);fill-opacity:1;stroke:none"
           sodipodi:nodetypes="cscssc" />
        <path
           style="fill:url(#linearGradient20);fill-opacity:1;stroke:none"
           d="m 463.0072,415.90669 c 0,0 0.40708,8.38785 -4.27994,8.77314 -6.44455,0.52977 -5.25463,-6.49946 -5.25463,-6.49946 0,0 3.81411,-0.0362 5.41857,-0.66492 1.60447,-0.6287 2.39011,-1.29703 3.00535,-1.43872 0.61523,-0.1417 1.11065,-0.17 1.11065,-0.17 z"
           id="path4166"
           inkscape:connector-curvature="0"
           sodipodi:nodetypes="csccccc" />
      </g>
      <g
         id="g4168"
         transform="matrix(0.24915956,-0.96846246,-0.96846246,-0.24915956,802.9605,1035.866)">
        <path
           sodipodi:nodetypes="cscssc"
           style="fill:url(#linearGradient21);fill-opacity:1;stroke:none"
           d="m 444.27773,133.80298 c 0,0 0.59977,8.27062 5.6821,7.54458 6.4013,-0.91446 3.6618,-7.51301 3.6618,-7.51301 0,0 -3.72493,0.82075 -5.42957,0.56821 -1.70463,-0.25254 -2.90418,-0.69448 -3.53553,-0.69448 -0.63134,0 -0.3788,0.0947 -0.3788,0.0947 z"
           id="path4170"
           inkscape:connector-curvature="0"
           transform="translate(4.2857208,283.92886)" />
        <path
           sodipodi:nodetypes="csccccc"
           inkscape:connector-curvature="0"
           id="path4172"
           d="m 463.0072,415.90669 c 0,0 0.40708,8.38785 -4.27994,8.77314 -6.44455,0.52977 -5.25463,-6.49946 -5.25463,-6.49946 0,0 3.81411,-0.0362 5.41857,-0.66492 1.60447,-0.6287 2.39011,-1.29703 3.00535,-1.43872 0.61523,-0.1417 1.11065,-0.17 1.11065,-0.17 z"
           style="fill:url(#linearGradient22);fill-opacity:1;stroke:none" />
      </g>
      <g
         transform="rotate(-90,462.92706,470.25527)"
         id="g4190">
        <path
           transform="translate(4.2857208,283.92886)"
           inkscape:connector-curvature="0"
           id="path4192"
           d="m 444.27773,133.80298 c 0,0 0.59977,8.27062 5.6821,7.54458 6.4013,-0.91446 3.6618,-7.51301 3.6618,-7.51301 0,0 -3.72493,0.82075 -5.42957,0.56821 -1.70463,-0.25254 -2.90418,-0.69448 -3.53553,-0.69448 -0.63134,0 -0.3788,0.0947 -0.3788,0.0947 z"
           style="fill:url(#linearGradient23);fill-opacity:1;stroke:none"
           sodipodi:nodetypes="cscssc" />
        <path
           style="fill:url(#linearGradient24);fill-opacity:1;stroke:none"
           d="m 463.0072,415.90669 c 0,0 0.40708,8.38785 -4.27994,8.77314 -6.44455,0.52977 -5.25463,-6.49946 -5.25463,-6.49946 0,0 3.81411,-0.0362 5.41857,-0.66492 1.60447,-0.6287 2.39011,-1.29703 3.00535,-1.43872 0.61523,-0.1417 1.11065,-0.17 1.11065,-0.17 z"
           id="path4194"
           inkscape:connector-curvature="0"
           sodipodi:nodetypes="csccccc" />
      </g>
      <g
         id="g4196"
         transform="rotate(-74.427785,462.96122,470.31714)">
        <path
           sodipodi:nodetypes="cscssc"
           style="fill:url(#linearGradient25);fill-opacity:1;stroke:none"
           d="m 444.27773,133.80298 c 0,0 0.59977,8.27062 5.6821,7.54458 6.4013,-0.91446 3.6618,-7.51301 3.6618,-7.51301 0,0 -3.72493,0.82075 -5.42957,0.56821 -1.70463,-0.25254 -2.90418,-0.69448 -3.53553,-0.69448 -0.63134,0 -0.3788,0.0947 -0.3788,0.0947 z"
           id="path4198"
           inkscape:connector-curvature="0"
           transform="translate(4.2857208,283.92886)" />
        <path
           sodipodi:nodetypes="csccccc"
           inkscape:connector-curvature="0"
           id="path4200"
           d="m 463.0072,415.90669 c 0,0 0.40708,8.38785 -4.27994,8.77314 -6.44455,0.52977 -5.25463,-6.49946 -5.25463,-6.49946 0,0 3.81411,-0.0362 5.41857,-0.66492 1.60447,-0.6287 2.39011,-1.29703 3.00535,-1.43872 0.61523,-0.1417 1.11065,-0.17 1.11065,-0.17 z"
           style="fill:url(#linearGradient26);fill-opacity:1;stroke:none" />
      </g>
      <g
         id="g4202"
         transform="matrix(0,-1,-1,0,933.15918,933.18231)">
        <path
           sodipodi:nodetypes="cscssc"
           style="fill:url(#linearGradient27);fill-opacity:1;stroke:none"
           d="m 444.27773,133.80298 c 0,0 0.59977,8.27062 5.6821,7.54458 6.4013,-0.91446 3.6618,-7.51301 3.6618,-7.51301 0,0 -3.72493,0.82075 -5.42957,0.56821 -1.70463,-0.25254 -2.90418,-0.69448 -3.53553,-0.69448 -0.63134,0 -0.3788,0.0947 -0.3788,0.0947 z"
           id="path4204"
           inkscape:connector-curvature="0"
           transform="translate(4.2857208,283.92886)" />
        <path
           sodipodi:nodetypes="csccccc"
           inkscape:connector-curvature="0"
           id="path4206"
           d="m 463.0072,415.90669 c 0,0 0.40708,8.38785 -4.27994,8.77314 -6.44455,0.52977 -5.25463,-6.49946 -5.25463,-6.49946 0,0 3.81411,-0.0362 5.41857,-0.66492 1.60447,-0.6287 2.39011,-1.29703 3.00535,-1.43872 0.61523,-0.1417 1.11065,-0.17 1.11065,-0.17 z"
           style="fill:url(#linearGradient28);fill-opacity:1;stroke:none" />
      </g>
      <g
         transform="matrix(-0.26845273,-0.96329287,-0.96329287,0.26845273,1040.2062,790.02647)"
         id="g4208">
        <path
           transform="translate(4.2857208,283.92886)"
           inkscape:connector-curvature="0"
           id="path4210"
           d="m 444.27773,133.80298 c 0,0 0.59977,8.27062 5.6821,7.54458 6.4013,-0.91446 3.6618,-7.51301 3.6618,-7.51301 0,0 -3.72493,0.82075 -5.42957,0.56821 -1.70463,-0.25254 -2.90418,-0.69448 -3.53553,-0.69448 -0.63134,0 -0.3788,0.0947 -0.3788,0.0947 z"
           style="fill:url(#linearGradient29);fill-opacity:1;stroke:none"
           sodipodi:nodetypes="cscssc" />
        <path
           style="fill:url(#linearGradient30);fill-opacity:1;stroke:none"
           d="m 463.0072,415.90669 c 0,0 0.40708,8.38785 -4.27994,8.77314 -6.44455,0.52977 -5.25463,-6.49946 -5.25463,-6.49946 0,0 3.81411,-0.0362 5.41857,-0.66492 1.60447,-0.6287 2.39011,-1.29703 3.00535,-1.43872 0.61523,-0.1417 1.11065,-0.17 1.11065,-0.17 z"
           id="path4212"
           inkscape:connector-curvature="0"
           sodipodi:nodetypes="csccccc" />
      </g>
      <g
         id="g4230"
         transform="rotate(-120,462.94955,470.24895)">
        <path
           sodipodi:nodetypes="cscssc"
           style="fill:url(#linearGradient31);fill-opacity:1;stroke:none"
           d="m 444.27773,133.80298 c 0,0 0.59977,8.27062 5.6821,7.54458 6.4013,-0.91446 3.6618,-7.51301 3.6618,-7.51301 0,0 -3.72493,0.82075 -5.42957,0.56821 -1.70463,-0.25254 -2.90418,-0.69448 -3.53553,-0.69448 -0.63134,0 -0.3788,0.0947 -0.3788,0.0947 z"
           id="path4232"
           inkscape:connector-curvature="0"
           transform="translate(4.2857208,283.92886)" />
        <path
           sodipodi:nodetypes="csccccc"
           inkscape:connector-curvature="0"
           id="path4234"
           d="m 463.0072,415.90669 c 0,0 0.40708,8.38785 -4.27994,8.77314 -6.44455,0.52977 -5.25463,-6.49946 -5.25463,-6.49946 0,0 3.81411,-0.0362 5.41857,-0.66492 1.60447,-0.6287 2.39011,-1.29703 3.00535,-1.43872 0.61523,-0.1417 1.11065,-0.17 1.11065,-0.17 z"
           style="fill:url(#linearGradient32);fill-opacity:1;stroke:none" />
      </g>
      <g
         transform="rotate(-104.42779,462.98808,470.28405)"
         id="g4236">
        <path
           transform="translate(4.2857208,283.92886)"
           inkscape:connector-curvature="0"
           id="path4238"
           d="m 444.27773,133.80298 c 0,0 0.59977,8.27062 5.6821,7.54458 6.4013,-0.91446 3.6618,-7.51301 3.6618,-7.51301 0,0 -3.72493,0.82075 -5.42957,0.56821 -1.70463,-0.25254 -2.90418,-0.69448 -3.53553,-0.69448 -0.63134,0 -0.3788,0.0947 -0.3788,0.0947 z"
           style="fill:url(#linearGradient33);fill-opacity:1;stroke:none"
           sodipodi:nodetypes="cscssc" />
        <path
           style="fill:url(#linearGradient34);fill-opacity:1;stroke:none"
           d="m 463.0072,415.90669 c 0,0 0.40708,8.38785 -4.27994,8.77314 -6.44455,0.52977 -5.25463,-6.49946 -5.25463,-6.49946 0,0 3.81411,-0.0362 5.41857,-0.66492 1.60447,-0.6287 2.39011,-1.29703 3.00535,-1.43872 0.61523,-0.1417 1.11065,-0.17 1.11065,-0.17 z"
           id="path4240"
           inkscape:connector-curvature="0"
           sodipodi:nodetypes="csccccc" />
      </g>
      <g
         transform="matrix(-0.50000001,-0.86602541,-0.86602541,0.50000001,1101.6628,636.05581)"
         id="g4242">
        <path
           transform="translate(4.2857208,283.92886)"
           inkscape:connector-curvature="0"
           id="path4244"
           d="m 444.27773,133.80298 c 0,0 0.59977,8.27062 5.6821,7.54458 6.4013,-0.91446 3.6618,-7.51301 3.6618,-7.51301 0,0 -3.72493,0.82075 -5.42957,0.56821 -1.70463,-0.25254 -2.90418,-0.69448 -3.53553,-0.69448 -0.63134,0 -0.3788,0.0947 -0.3788,0.0947 z"
           style="fill:url(#linearGradient35);fill-opacity:1;stroke:none"
           sodipodi:nodetypes="cscssc" />
        <path
           style="fill:url(#linearGradient36);fill-opacity:1;stroke:none"
           d="m 463.0072,415.90669 c 0,0 0.40708,8.38785 -4.27994,8.77314 -6.44455,0.52977 -5.25463,-6.49946 -5.25463,-6.49946 0,0 3.81411,-0.0362 5.41857,-0.66492 1.60447,-0.6287 2.39011,-1.29703 3.00535,-1.43872 0.61523,-0.1417 1.11065,-0.17 1.11065,-0.17 z"
           id="path4246"
           inkscape:connector-curvature="0"
           sodipodi:nodetypes="csccccc" />
      </g>
      <g
         id="g4248"
         transform="matrix(-0.71413332,-0.70000973,-0.70000973,0.71413332,1122.7903,458.55571)">
        <path
           sodipodi:nodetypes="cscssc"
           style="fill:url(#linearGradient37);fill-opacity:1;stroke:none"
           d="m 444.27773,133.80298 c 0,0 0.59977,8.27062 5.6821,7.54458 6.4013,-0.91446 3.6618,-7.51301 3.6618,-7.51301 0,0 -3.72493,0.82075 -5.42957,0.56821 -1.70463,-0.25254 -2.90418,-0.69448 -3.53553,-0.69448 -0.63134,0 -0.3788,0.0947 -0.3788,0.0947 z"
           id="path4250"
           inkscape:connector-curvature="0"
           transform="translate(4.2857208,283.92886)" />
        <path
           sodipodi:nodetypes="csccccc"
           inkscape:connector-curvature="0"
           id="path4252"
           d="m 463.0072,415.90669 c 0,0 0.40708,8.38785 -4.27994,8.77314 -6.44455,0.52977 -5.25463,-6.49946 -5.25463,-6.49946 0,0 3.81411,-0.0362 5.41857,-0.66492 1.60447,-0.6287 2.39011,-1.29703 3.00535,-1.43872 0.61523,-0.1417 1.11065,-0.17 1.11065,-0.17 z"
           style="fill:url(#linearGradient38);fill-opacity:1;stroke:none" />
      </g>
      <g
         transform="rotate(-150,462.95023,470.2594)"
         id="g4270">
        <path
           transform="translate(4.2857208,283.92886)"
           inkscape:connector-curvature="0"
           id="path4272"
           d="m 444.27773,133.80298 c 0,0 0.59977,8.27062 5.6821,7.54458 6.4013,-0.91446 3.6618,-7.51301 3.6618,-7.51301 0,0 -3.72493,0.82075 -5.42957,0.56821 -1.70463,-0.25254 -2.90418,-0.69448 -3.53553,-0.69448 -0.63134,0 -0.3788,0.0947 -0.3788,0.0947 z"
           style="fill:url(#linearGradient39);fill-opacity:1;stroke:none"
           sodipodi:nodetypes="cscssc" />
        <path
           style="fill:url(#linearGradient40);fill-opacity:1;stroke:none"
           d="m 463.0072,415.90669 c 0,0 0.40708,8.38785 -4.27994,8.77314 -6.44455,0.52977 -5.25463,-6.49946 -5.25463,-6.49946 0,0 3.81411,-0.0362 5.41857,-0.66492 1.60447,-0.6287 2.39011,-1.29703 3.00535,-1.43872 0.61523,-0.1417 1.11065,-0.17 1.11065,-0.17 z"
           id="path4274"
           inkscape:connector-curvature="0"
           sodipodi:nodetypes="csccccc" />
      </g>
      <g
         id="g4276"
         transform="rotate(-134.42779,462.99143,470.28024)">
        <path
           sodipodi:nodetypes="cscssc"
           style="fill:url(#linearGradient41);fill-opacity:1;stroke:none"
           d="m 444.27773,133.80298 c 0,0 0.59977,8.27062 5.6821,7.54458 6.4013,-0.91446 3.6618,-7.51301 3.6618,-7.51301 0,0 -3.72493,0.82075 -5.42957,0.56821 -1.70463,-0.25254 -2.90418,-0.69448 -3.53553,-0.69448 -0.63134,0 -0.3788,0.0947 -0.3788,0.0947 z"
           id="path4278"
           inkscape:connector-curvature="0"
           transform="translate(4.2857208,283.92886)" />
        <path
           sodipodi:nodetypes="csccccc"
           inkscape:connector-curvature="0"
           id="path4280"
           d="m 463.0072,415.90669 c 0,0 0.40708,8.38785 -4.27994,8.77314 -6.44455,0.52977 -5.25463,-6.49946 -5.25463,-6.49946 0,0 3.81411,-0.0362 5.41857,-0.66492 1.60447,-0.6287 2.39011,-1.29703 3.00535,-1.43872 0.61523,-0.1417 1.11065,-0.17 1.11065,-0.17 z"
           style="fill:url(#linearGradient42);fill-opacity:1;stroke:none" />
      </g>
      <g
         id="g4282"
         transform="matrix(-0.86602541,-0.5,-0.5,0.86602541,1098.9909,294.50517)">
        <path
           sodipodi:nodetypes="cscssc"
           style="fill:url(#linearGradient43);fill-opacity:1;stroke:none"
           d="m 444.27773,133.80298 c 0,0 0.59977,8.27062 5.6821,7.54458 6.4013,-0.91446 3.6618,-7.51301 3.6618,-7.51301 0,0 -3.72493,0.82075 -5.42957,0.56821 -1.70463,-0.25254 -2.90418,-0.69448 -3.53553,-0.69448 -0.63134,0 -0.3788,0.0947 -0.3788,0.0947 z"
           id="path4284"
           inkscape:connector-curvature="0"
           transform="translate(4.2857208,283.92886)" />
        <path
           sodipodi:nodetypes="csccccc"
           inkscape:connector-curvature="0"
           id="path4286"
           d="m 463.0072,415.90669 c 0,0 0.40708,8.38785 -4.27994,8.77314 -6.44455,0.52977 -5.25463,-6.49946 -5.25463,-6.49946 0,0 3.81411,-0.0362 5.41857,-0.66492 1.60447,-0.6287 2.39011,-1.29703 3.00535,-1.43872 0.61523,-0.1417 1.11065,-0.17 1.11065,-0.17 z"
           style="fill:url(#linearGradient44);fill-opacity:1;stroke:none" />
      </g>
      <g
         transform="matrix(-0.96846246,-0.24915955,-0.24915955,0.96846246,1028.5378,130.22182)"
         id="g4288">
        <path
           transform="translate(4.2857208,283.92886)"
           inkscape:connector-curvature="0"
           id="path4290"
           d="m 444.27773,133.80298 c 0,0 0.59977,8.27062 5.6821,7.54458 6.4013,-0.91446 3.6618,-7.51301 3.6618,-7.51301 0,0 -3.72493,0.82075 -5.42957,0.56821 -1.70463,-0.25254 -2.90418,-0.69448 -3.53553,-0.69448 -0.63134,0 -0.3788,0.0947 -0.3788,0.0947 z"
           style="fill:url(#linearGradient4054);fill-opacity:1;stroke:none"
           sodipodi:nodetypes="cscssc" />
        <path
           style="fill:url(#linearGradient4076);fill-opacity:1;stroke:none"
           d="m 463.0072,415.90669 c 0,0 0.40708,8.38785 -4.27994,8.77314 -6.44455,0.52977 -5.25463,-6.49946 -5.25463,-6.49946 0,0 3.81411,-0.0362 5.41857,-0.66492 1.60447,-0.6287 2.39011,-1.29703 3.00535,-1.43872 0.61523,-0.1417 1.11065,-0.17 1.11065,-0.17 z"
           id="path4292"
           inkscape:connector-curvature="0"
           sodipodi:nodetypes="csccccc" />
      </g>
      <path
         id="text3035-2"
         d="m 454.44197,442.36637 c -0.64027,2e-5 -1.63915,0.82265 -2.9375,2.46875 -0.89648,1.15214 -1.62818,2.26421 -2.25,3.34375 -0.51244,0.89592 -1.26256,2.34988 -2.25,4.34375 -1.53673,3.10973 -2.87134,5.38072 -3.96875,6.84375 -2.04859,2.74354 -4.08924,4.125 -6.15625,4.125 -0.49344,0 -0.98033,-0.10596 -1.4375,-0.34375 -0.56712,-0.29249 -0.84375,-0.65501 -0.84375,-1.09375 0,-0.40246 0.36251,-0.74378 1.09375,-1 0.54871,-0.16467 1.10699,-0.3225 1.65625,-0.46875 0.62183,-0.29249 0.90625,-0.73978 0.90625,-1.34375 0,-0.58499 -0.21695,-1.04566 -0.65625,-1.375 -0.40246,-0.27463 -0.89659,-0.40624 -1.5,-0.40625 -0.85962,10e-6 -1.57991,0.3324 -2.15625,1 -0.57633,0.66761 -0.87499,1.42107 -0.875,2.28125 10e-6,1.04216 0.34523,1.90021 1.03125,2.53125 0.68603,0.63104 1.56387,0.9375 2.625,0.9375 2.50575,0 4.842,-1.40208 7,-4.21875 1.13425,-1.46303 2.57482,-3.99561 4.3125,-7.5625 1.66453,-3.42062 3.12573,-5.91415 4.40625,-7.46875 -1.17055,2.50577 -1.75001,5.86097 -1.75,10.03125 -1e-5,2.50576 0.26378,5.59158 0.8125,9.25 l 3.59375,-1.75 c -0.12784,-0.7318 -0.18193,-1.55945 -0.21875,-2.4375 1.71923,-4.02404 2.56248,-6.03124 2.5625,-6.03125 1.40887,-3.21911 2.29061,-4.94969 2.65625,-5.1875 l 1.71875,-0.65625 c 0.74964,-0.29304 1.12498,-0.68121 1.125,-1.15625 -2e-5,-0.65866 -0.38819,-0.96873 -1.15625,-0.96875 -0.85965,2e-5 -2.18923,1.8031 -4,5.40625 -0.45774,0.93276 -1.51573,3.22941 -3.125,6.90625 -0.40248,-3.31066 -0.59377,-6.33681 -0.59375,-9.0625 -2e-5,-2.59728 0.21749,-4.66415 0.65625,-6.21875 0.0368,-0.12781 0.0625,-0.21314 0.0625,-0.25 -2e-5,-0.31089 -0.10597,-0.46873 -0.34375,-0.46875 z m 23.5,3 c -0.40247,2e-5 -0.85755,0.15282 -1.40625,0.5 -1.07956,1.90235 -2.59235,4.79688 -4.53125,8.65625 -1.9389,3.85938 -3.42659,6.7277 -4.46875,8.59375 1.44462,0 2.49758,-0.17066 3.15625,-0.5 l 2.375,-4.84375 c 0.0915,0.53029 0.50034,0.81251 1.25,0.8125 0.16466,10e-6 0.49316,-0.0257 0.96875,-0.0625 -0.98746,1.15268 -1.46875,2.37631 -1.46875,3.65625 0,1.06113 0.6185,1.59375 1.84375,1.59375 0.93274,0 1.66444,-0.17066 2.25,-0.5 0.42031,-0.21937 0.98864,-0.69677 1.65625,-1.4375 0.5007,-0.55554 0.82333,-1.00973 1,-1.375 -0.10347,0.37045 -0.125,0.73438 -0.125,1.0625 0,0.49401 0.16535,0.9544 0.53125,1.375 0.3659,0.4206 0.81849,0.625 1.3125,0.625 1.07899,0 1.90941,-0.55883 2.53125,-1.65625 0.25621,0.7318 0.41404,1.14563 0.46875,1.21875 0.21992,0.2925 0.63375,0.4375 1.21875,0.4375 0.75021,0 1.75102,-0.66089 3.03125,-1.96875 1.28022,-1.30785 1.93749,-2.34409 1.9375,-3.09375 -1e-5,-0.10996 -0.0519,-0.1897 -0.125,-0.28125 h -0.0937 c -0.10998,0.0553 -0.4552,0.49334 -1.03125,1.34375 -0.57607,0.85042 -1.23696,1.38721 -1.96875,1.625 l -0.25,-0.15625 c 0.31091,-0.8412 1.03481,-2.13229 2.1875,-3.90625 1.06056,-1.62825 1.72535,-2.97066 2,-4.03125 -0.29251,-0.0553 -0.7013,-0.0937 -1.25,-0.0937 -0.56714,10e-6 -0.95475,0.0853 -1.15625,0.25 -0.0179,0.20152 -0.0775,0.32031 -0.1875,0.375 -0.1831,-0.0184 -0.46503,-0.12047 -0.8125,-0.3125 -0.34749,-0.19201 -0.58534,-0.28124 -0.75,-0.28125 -1.35364,10e-6 -2.95594,1.06942 -4.8125,3.21875 -1.28375,1.48619 -2.13517,2.78316 -2.53125,3.90625 l -0.0312,-0.0625 c -0.53086,0.4393 -0.90061,0.78063 -1.15625,1 -0.80493,0.64025 -1.71792,0.96875 -2.6875,0.96875 l -0.28135,-0.2813 c 0.51186,-0.12783 0.74999,-0.76696 0.75,-1.9375 -1e-5,-0.67709 -0.0335,-1.15562 -0.125,-1.375 -0.16468,-0.38403 -0.52719,-0.60878 -1.09375,-0.71875 l 1.625,-1.71875 c 0.80491,-0.85962 1.31967,-1.28124 1.59375,-1.28125 0.0368,10e-6 0.25378,0.0469 0.65625,0.15625 -0.14682,0.32935 -0.37156,0.51284 -0.71875,0.53125 -0.65868,0.42033 -1.00001,0.99199 -1,1.6875 -1e-5,0.10941 0.0981,0.21565 0.28125,0.34375 0.18308,0.12811 0.32808,0.18751 0.4375,0.1875 0.5487,10e-6 1.03503,-0.26379 1.4375,-0.8125 0.38403,-0.494 0.56249,-1.02661 0.5625,-1.59375 -1e-5,-0.45715 -0.1913,-0.83611 -0.59375,-1.15625 -0.40247,-0.32012 -0.83693,-0.49999 -1.3125,-0.5 -0.93276,10e-6 -1.8463,0.36196 -2.6875,1.09375 -0.16468,0.14626 -0.8423,0.90197 -2.03125,2.21875 l -0.4375,-0.375 -0.0625,-0.15625 c 1.09741,-1.48145 2.12471,-3.24548 3.09375,-5.3125 1.13425,-2.48787 1.99536,-4.3629 2.5625,-5.625 -0.93276,-0.0178 -1.45813,-0.0312 -1.53125,-0.0312 z m -13.46875,7.71875 -3.15625,0.25 -3.1875,7.03125 c -0.18253,0.40246 -0.25,0.79063 -0.25,1.15625 0,0.49401 0.16563,0.9544 0.53125,1.375 0.36562,0.4206 0.78724,0.625 1.28125,0.625 1.07955,0 1.94066,-0.55883 2.5625,-1.65625 0.25565,0.7318 0.41348,1.14563 0.46875,1.21875 0.21937,0.2925 0.63375,0.4375 1.21875,0.4375 0.75021,0 1.75074,-0.66089 3.03125,-1.96875 1.2805,-1.30785 1.93749,-2.34409 1.9375,-3.09375 -1e-5,-0.10996 -0.0513,-0.1897 -0.125,-0.28125 h -0.0937 c -0.10942,0.0553 -0.45492,0.49334 -1.03125,1.34375 -0.57635,0.85042 -1.23752,1.38721 -1.96875,1.625 l -0.25,-0.15625 c 0.23778,-0.65811 0.56125,-1.34912 1,-2.0625 0.53028,-0.85962 0.94411,-1.49819 1.21875,-1.9375 l 2.3125,-3.90625 -3,0.25 c -0.54872,1.22581 -1.35795,2.72606 -2.4375,4.5 -1.42676,2.35951 -2.38156,3.53125 -2.875,3.53125 -0.18309,0 -0.32754,-0.145 -0.4375,-0.4375 -0.091,-0.21937 -0.15625,-0.43632 -0.15625,-0.65625 0,-0.85962 0.44004,-2.09104 1.28125,-3.71875 0.69495,-1.3352 1.3932,-2.49915 2.125,-3.46875 z m 24.09375,0.90625 c 0.27407,10e-6 0.44529,0.13722 0.5,0.375 -0.2925,0.76809 -1.0298,2.05918 -2.21875,3.90625 -1.33521,2.06701 -2.20412,3.09375 -2.625,3.09375 -0.31092,0 -0.46875,-0.17846 -0.46875,-0.5625 0,-0.95117 0.48633,-2.12291 1.4375,-3.53125 0.82334,-1.20737 1.66603,-2.18783 2.5625,-2.9375 v 0.0312 c 0.29249,-0.23778 0.55628,-0.37499 0.8125,-0.375 z m 3.40625,8.1875 c -0.30338,-0.13045 -0.81995,5.35992 -8.4375,6.375 -7.61755,1.01508 -49,-5.42037 -49,10.4375 0,5.7883 4.92031,4.51338 4.9375,4 0.0172,-0.51338 -1.65864,0.84569 -2.34375,-2.3125 -0.68511,-3.15819 1.81756,-6.29818 11.6875,-7.6875 9.86994,-1.38932 34.53275,1.02076 38.78125,-1.9375 4.2485,-2.95826 4.67838,-8.74455 4.375,-8.875 z m -32.53125,14.59375 v 0.0312 c -1.18898,2e-5 -2.31388,0.25602 -3.375,0.75 -0.20097,-0.16465 -0.51132,-0.33531 -0.96875,-0.5 -0.45746,-0.16465 -0.83755,-0.24998 -1.09375,-0.25 -2.15801,2e-5 -4.48087,0.98828 -6.96875,3 -2.1033,1.7014 -3.93983,3.81959 -5.53125,6.34375 -1.81079,2.87138 -2.71875,5.47087 -2.71875,7.8125 0,2.57888 1.46679,3.875 4.375,3.875 2.0123,0 3.83545,-0.92858 5.5,-2.8125 1.62769,-1.82921 2.43749,-3.76391 2.4375,-5.8125 -1e-5,-1.3352 -0.69826,-1.99999 -2.125,-2 -1.42676,1e-5 -2.59071,0.65197 -3.46875,1.96875 -0.78651,1.15269 -1.18751,2.46888 -1.1875,3.96875 -1e-5,0.0547 0.0256,0.18688 0.0625,0.40625 h 0.0625 l 1.3125,-0.9375 c 0.494,-0.34775 0.9675,-0.61154 1.40625,-0.8125 0.34775,-1.20737 0.6372,-1.97812 0.875,-2.34375 l 0.0625,-0.0312 c 0.62182,-0.65866 1.09532,-0.99999 1.40625,-1 0.20094,10e-6 0.36657,0.12411 0.53125,0.34375 0.16466,0.21966 0.24999,0.43689 0.25,0.65625 -1e-5,1.44518 -0.5923,2.88072 -1.78125,4.34375 -1.26209,1.53672 -2.59167,2.3125 -4,2.3125 -1.42676,0 -2.15625,-0.94141 -2.15625,-2.84375 0,-1.48145 0.66479,-3.48085 2,-5.96875 1.13425,-2.14012 2.48949,-4.0882 4.0625,-5.84375 2.1217,-2.3779 4.04916,-3.56248 5.75,-3.5625 0.12837,2e-5 0.35311,0.0725 0.71875,0.21875 -1.07901,0.40248 -2.13559,1.27698 -3.1875,2.59375 -1.05194,1.3168 -1.56251,2.50918 -1.5625,3.625 l 0.40625,0.96875 1.0625,0.3125 c 1.31677,10e-6 2.47569,-0.65139 3.5,-1.96875 0.96957,-1.24365 1.46873,-2.5526 1.46875,-3.90625 -2e-5,-0.10939 -0.0168,-0.29344 -0.0625,-0.53125 -0.0458,-0.23777 -0.0625,-0.39002 -0.0625,-0.5 -2e-5,-0.23777 0.26377,-0.37498 0.8125,-0.375 1.06111,2e-5 3.45648,1.08644 7.1875,3.28125 0.87789,0.52123 1.57566,0.88071 2.09375,1.0625 -0.0468,0.061 -0.0779,0.12545 -0.125,0.1875 -2.10665,2.77502 -3.71596,5.60188 -4.875,8.46875 -0.14682,10e-6 -0.39501,0.0388 -0.6875,0.0937 -0.2925,0.055 -0.51001,0.0938 -0.65625,0.0937 -0.14626,1e-5 -0.28567,-0.0385 -0.46875,-0.0937 0.40245,-1.11527 0.59374,-1.86539 0.59375,-2.25 -1e-5,-1.15211 -0.63134,-1.71874 -1.875,-1.71875 -1.57301,1e-5 -3.17921,1.03958 -4.84375,3.125 -1.59142,2.01175 -2.40625,3.82766 -2.40625,5.4375 0,1.31679 0.74288,1.96875 2.1875,1.96875 1.04271,0 2.2139,-0.73729 3.53125,-2.21875 0.9506,-1.07955 1.77323,-2.27696 2.46875,-3.59375 0.20094,0.0368 0.39223,0.0313 0.59375,0.0312 0.31091,1e-5 0.67342,-0.0463 1.09375,-0.15625 0.0781,-0.0188 0.15217,-0.0417 0.21875,-0.0625 -0.0198,0.0522 -0.043,0.10398 -0.0625,0.15625 -0.64025,1.71981 -0.96875,3.14755 -0.96875,4.28125 0,0.45717 0.13551,0.84895 0.4375,1.1875 0.30198,0.33855 0.69908,0.5 1.15625,0.5 0.73179,0 1.89071,-0.94141 3.5,-2.84375 0.80492,-0.95117 1.21874,-1.53062 1.21875,-1.75 -1e-5,-0.0915 -0.0647,-0.15625 -0.15625,-0.15625 -0.21938,0 -0.67474,0.45288 -1.40625,1.3125 -0.73152,0.85963 -1.30291,1.28125 -1.6875,1.28125 -0.0179,0 -0.0519,-0.0128 -0.125,-0.0312 l -0.3125,-0.65625 c 0.0184,-0.45716 0.16342,-1.13478 0.4375,-2.03125 0.31147,-0.96958 0.58809,-1.56187 0.84375,-1.78125 1.17054,-0.96958 2.07069,-1.69404 2.65625,-2.1875 3.10568,-2.70518 5.51599,-5.46954 7.25,-8.28125 0.52289,-0.37235 1.04143,-0.80125 1.5625,-1.28125 1.26205,-1.1521 1.9196,-2.00818 1.9375,-2.59375 l -0.0937,-0.1875 v -0.0312 h -0.0937 c -0.86915,0.69185 -1.63458,1.24084 -2.25,1.6875 0.0231,-0.1551 0.0312,-0.31865 0.0312,-0.46875 -1e-5,-0.62181 -0.46848,-0.93748 -1.4375,-0.9375 -1.55596,2e-5 -3.37811,1.16307 -5.46875,3.46875 -0.51502,-0.0991 -1.21385,-0.40034 -2.09375,-0.9375 -1.77454,-1.07898 -2.80128,-1.69748 -3.09375,-1.84375 -1.31681,-0.67651 -2.5276,-1.02564 -3.625,-1.0625 z m 14.4375,1.28125 c 0.10995,2e-5 0.26778,0.1969 0.46875,0.5625 -0.0314,0.19664 -0.0771,0.39793 -0.15625,0.625 -0.21744,0.14084 -0.43188,0.25661 -0.59375,0.34375 -0.94752,0.50624 -1.98042,0.85301 -3.09375,1 1.40395,-1.66235 2.52534,-2.53124 3.375,-2.53125 z m -18.40625,0.6875 c -0.0184,0.1284 -0.005,0.3119 0.0312,0.53125 0.0365,0.21939 0.0625,0.37722 0.0625,0.46875 -2e-5,0.98747 -0.39378,2.02704 -1.125,3.125 -0.80494,1.20684 -1.66102,1.81251 -2.59375,1.8125 -0.4756,10e-6 -0.71876,-0.21749 -0.71875,-0.65625 -10e-6,-0.16465 0.0597,-0.42065 0.1875,-0.75 0.85961,-2.21324 2.2539,-3.72631 4.15625,-4.53125 z m 17.28125,3.03125 c -0.65768,0.93608 -1.46504,1.99091 -2.53125,3.1875 -2.30481,2.5973 -4.23227,4.40039 -5.75,5.40625 0.65811,-1.81078 1.98769,-4.19836 4,-7.125 0.0842,-0.12242 0.16724,-0.22567 0.25,-0.34375 1.34956,-0.021 2.69355,-0.40346 4.03125,-1.125 z m 4.46875,5.46875 c -0.56714,10e-6 -0.95475,0.0853 -1.15625,0.25 -0.0179,0.20152 -0.0775,0.35156 -0.1875,0.40625 -0.1831,-0.0184 -0.43378,-0.15172 -0.78125,-0.34375 -0.34749,-0.19201 -0.61659,-0.28124 -0.78125,-0.28125 -1.35364,10e-6 -2.95594,1.06942 -4.8125,3.21875 -1.85657,2.14935 -2.78125,3.92259 -2.78125,5.3125 0,0.49401 0.16535,0.9544 0.53125,1.375 0.3659,0.4206 0.81849,0.625 1.3125,0.625 1.07899,0 1.90941,-0.52758 2.53125,-1.625 0.25621,0.7318 0.41404,1.11438 0.46875,1.1875 0.21992,0.2925 0.63375,0.4375 1.21875,0.4375 0.75021,0 1.75102,-0.62964 3.03125,-1.9375 1.28022,-1.30785 1.93749,-2.34409 1.9375,-3.09375 -1e-5,-0.10996 -0.0519,-0.22095 -0.125,-0.3125 h -0.0937 c -0.10998,0.0553 -0.4552,0.52459 -1.03125,1.375 -0.57607,0.85042 -1.23696,1.38721 -1.96875,1.625 l -0.25005,-0.15625 c 0.31091,-0.8412 1.03481,-2.16354 2.1875,-3.9375 1.06056,-1.62825 1.72535,-2.97066 2,-4.03125 -0.29251,-0.0553 -0.7013,-0.0937 -1.25,-0.0937 z m -2.34375,1.0625 c 0.27407,10e-6 0.41404,0.10597 0.46875,0.34375 -0.2925,0.76809 -1.0298,2.09043 -2.21875,3.9375 -1.33521,2.06701 -2.20412,3.09375 -2.625,3.09375 -0.31092,0 -0.46875,-0.20971 -0.46875,-0.59375 0,-0.95117 0.48633,-2.12291 1.4375,-3.53125 0.82334,-1.20737 1.66603,-2.18783 2.5625,-2.9375 v 0.0312 c 0.29249,-0.23778 0.58753,-0.34374 0.84375,-0.34375 z m -16.0625,0.0937 c 0.47558,1e-5 0.71874,0.30285 0.71875,0.90625 -1e-5,0.27464 -0.0597,0.64998 -0.1875,1.125 -0.16468,0.58556 -0.33534,0.87501 -0.5,0.875 v 0.0312 c -0.0547,0.0184 -0.0882,0.0313 -0.125,0.0312 -0.36563,10e-6 -0.7499,-0.15755 -1.125,-0.46875 -0.37511,-0.31119 -0.56251,-0.62154 -0.5625,-0.96875 -1e-5,-0.34775 0.23536,-0.70218 0.65625,-1.03125 0.42087,-0.32905 0.77779,-0.49999 1.125,-0.5 z m -2.375,2.125 c 0.42088,0.87805 1.15037,1.35935 2.15625,1.46875 -1.29837,2.48789 -2.56104,3.75 -3.75,3.75 -0.36562,0 -0.53125,-0.19632 -0.53125,-0.5625 0,-0.31091 0.0931,-0.71191 0.3125,-1.1875 0.24824,-0.54893 0.39571,-0.91875 0.4375,-1.125 0.60341,-1.20738 1.06408,-1.97812 1.375,-2.34375 z"
         style="font-style:normal;font-variant:normal;font-weight:normal;font-stretch:normal;font-size:40px;line-height:125%;font-family:arvander;-inkscape-font-specification:arvander;letter-spacing:0px;word-spacing:0px;fill:#ffffff;fill-opacity:1;stroke:none"
         inkscape:connector-curvature="0" />
      <circle
         transform="matrix(0.82023807,0,0,0.82023807,85.645091,317.0041)"
         id="path4328"
         style="color:#000000;display:inline;overflow:visible;visibility:visible;opacity:0.649038;fill:url(#linearGradient4911-2);fill-opacity:1;fill-rule:nonzero;stroke:none;stroke-width:4;marker:none;enable-background:accumulate"
         cx="459.61942"
         cy="186.80443"
         r="53.033009" />
    </g>
  </g>
</svg>
