<?xml version="1.0" encoding="UTF-8" standalone="no"?>
<!-- Created with Inkscape (http://www.inkscape.org/) -->

<svg
   width="40.714977mm"
   height="48.780525mm"
   viewBox="0 0 40.714977 48.780525"
   version="1.1"
   id="svg1"
   inkscape:version="1.4.2 (f4327f4, 2025-05-13)"
   sodipodi:docname="brotherhood-error.svg"
   xmlns:inkscape="http://www.inkscape.org/namespaces/inkscape"
   xmlns:sodipodi="http://sodipodi.sourceforge.net/DTD/sodipodi-0.dtd"
   xmlns="http://www.w3.org/2000/svg"
   xmlns:svg="http://www.w3.org/2000/svg">
  <sodipodi:namedview
     id="namedview1"
     pagecolor="#ffffff"
     bordercolor="#000000"
     borderopacity="0.25"
     inkscape:showpageshadow="2"
     inkscape:pageopacity="0.0"
     inkscape:pagecheckerboard="0"
     inkscape:deskcolor="#d1d1d1"
     inkscape:document-units="mm"
     inkscape:zoom="2.0334082"
     inkscape:cx="9.0980258"
     inkscape:cy="131.06075"
     inkscape:window-width="1920"
     inkscape:window-height="1009"
     inkscape:window-x="-8"
     inkscape:window-y="-8"
     inkscape:window-maximized="1"
     inkscape:current-layer="layer1" />
  <defs
     id="defs1" />
  <g
     inkscape:label="Слой 1"
     inkscape:groupmode="layer"
     id="layer1"
     transform="translate(-167.74584,-121.44375)">
    <g
       id="g4441"
       transform="matrix(0.03353673,0,0,0.03353673,111.64394,125.13348)"
       fill="currentColor">
      <path
         fill="currentColor"
         d="m 2260.2302,1341.5919 c -5.2575,-2.1501 -9.121,-4.9854 -14.88,-10.9199 -6.673,-6.8763 -8.1673,-9.2389 -10.5128,-16.622 -2.502,-7.8753 -2.6337,-9.5062 -1.5514,-19.2007 1.922,-17.2148 7.3543,-25.4171 23.7377,-35.8418 l 5.1659,-3.2871 -0.2582,-10.9157 c -0.142,-6.0036 -0.1803,-50.1437 -0.085,-98.0892 0.095,-47.9454 -0.125,-87.9498 -0.489,-88.8984 -0.8888,-2.3162 -14.3266,-9.156 -17.9881,-9.156 -5.3056,0 -17.3671,3.691 -23.524,7.1986 -5.1449,2.9311 -7.3461,3.4535 -14.5495,3.4535 -8.4511,0 -8.5123,-0.024 -14.2946,-5.432 -7.4829,-6.9992 -10.0168,-13.8906 -8.3463,-22.6989 1.7093,-9.0136 6.3123,-17.264 11.4599,-20.5412 10.8715,-6.9211 11.9809,-7.0012 20.0432,-1.4457 5.4847,3.7793 16.6736,8.6222 20.0341,8.6715 1.3019,0.019 4.4162,0.6037 6.9206,1.2992 8.2363,-0.4722 8.2431,-1.9238 8.0186,-8.4244 -0.4795,-4.2063 -0.8413,-245.9883 -0.8041,-537.29327 l 0.067,-529.645396 6.6288,-11.243869 c 3.6457,-6.184127 8.9295,-15.504703 11.7416,-20.712389 2.8121,-5.207687 6.3537,-10.974231 7.8703,-12.814546 1.5165,-1.84031 3.0813,-4.63648 3.4771,-6.21372 1.7881,-7.12442 5.9346,-1.94511 22.6201,28.254837 l 10.9828,19.878656 V 478.09171 c 0,498.39603 0.1414,537.25689 1.9591,538.76419 1.3889,1.1516 5.2078,1.5789 13.1228,1.4681 l 10.953,-1.8418 c 6.6871,-3.9249 8.4864,-4.5105 13.5799,-8.5276 5.7741,-3.7834 10.1325,-3.6674 15.63,0.4161 6.7228,4.9935 10.2749,12.611 10.8333,23.2317 0.5408,10.284 -1.7931,15.6246 -9.9758,22.8273 -5.3636,4.7212 -5.8085,4.8784 -13.8123,4.8784 -6.9633,0 -9.228,-0.5457 -14.332,-3.4535 -6.157,-3.5076 -18.2185,-7.1986 -23.5241,-7.1986 -4.5011,0 -17.1447,6.9891 -17.9287,9.9105 -0.9403,3.5031 -0.8801,140.7465 0.074,169.5052 0.8899,26.8223 -0.8539,22.5598 14.2189,34.753 5.5612,4.4988 8.2239,7.7729 11.142,13.7002 3.5691,7.25 3.8331,8.6232 3.8166,19.8562 -0.026,18.0157 -4.6042,28.0968 -17.6765,38.9262 -8.2877,6.8658 -16.1335,9.245 -30.3767,9.212 -10.0719,-0.024 -13.2711,-0.5124 -19.1886,-2.9324 z m -42.6084,-135.0786 c -37.31,-4.5024 -87.825,-14.2022 -113.3895,-21.7727 -61.7002,-18.2718 -138.0613,-56.6393 -189.1363,-95.0315 -17.0493,-12.8157 -23.5463,-18.8405 -23.5463,-21.8352 0,-2.082 1.026,-2.4486 8.5809,-3.0665 4.7194,-0.3858 23.4938,-1.008 41.7207,-1.3826 39.5761,-0.8131 50.7109,-1.8529 71.0139,-6.6313 16.5551,-3.8963 23.4299,-6.4892 22.7347,-8.5749 -0.2406,-0.7219 -16.9053,-5.1013 -37.0328,-9.7321 -42.7683,-9.8399 -53.8165,-12.7677 -78.6118,-20.8316 -38.658,-12.5722 -74.3999,-29.74664 -98.8277,-47.48771 -12.8237,-9.31348 -30.2963,-24.77637 -42.1813,-37.32955 -11.3374,-11.97488 -13.6303,-15.37412 -12.4482,-18.4545 0.7945,-2.0705 0.2144,-2.11091 25.6322,1.78506 23.9546,3.6717 83.9139,5.5903 84.8781,2.71598 0.2714,-0.80906 -7.1199,-4.32948 -18.2438,-8.6894 -37.6529,-14.75782 -46.2054,-18.29399 -60.3487,-24.95243 -29.8256,-14.04143 -50.4943,-27.74877 -69.4614,-46.06636 -28.136,-27.17234 -45.8193,-57.65931 -52.697,-90.85224 -3.3765,-16.29609 -4.2628,-28.10462 -2.5755,-34.31571 1.2005,-4.41894 1.7757,-5.03015 4.7339,-5.03015 3.5647,0 4.579,0.97985 18.2839,17.6619 11.6705,14.20572 30.3957,28.15548 51.7363,38.54216 19.1504,9.3207 19.3979,7.25121 2.0107,-16.80989 -36.6119,-50.66506 -61.2157,-102.61567 -70.6705,-149.22011 -4.9753,-24.52439 -6.3522,-42.59272 -5.8025,-76.1443 0.463,-28.25996 0.5367,-28.98528 3.6215,-35.65233 1.7319,-3.74302 3.6987,-6.8055 4.3706,-6.8055 2.6144,0 5.2049,6.51869 9.5038,23.91469 2.4603,9.95604 6.1326,22.36271 8.1606,27.5704 7.0308,18.05411 18.8852,36.1739 35.038,53.55632 8.1363,8.75559 12.2073,10.97023 10.8785,5.91782 -2.1898,-8.32585 -8.5155,-38.76123 -12.0108,-57.78852 -5.8516,-31.8545 -6.9819,-48.6644 -5.4317,-80.7769 2.7148,-56.23524 10.2629,-93.01102 28.4266,-138.50007 9.2529,-23.17289 33.3599,-63.09377 52.4471,-86.85155 9.6788,-12.04722 35.3546,-40.56634 36.522,-40.56634 0.4065,0 4.1586,-3.32877 8.3381,-7.39728 15.0548,-14.65503 21.5399,-19.93796 24.0368,-19.58073 4.5378,0.64923 3.4788,5.6325 -4.7351,22.28067 -19.2925,39.10284 -31.6393,74.95319 -41.3031,119.92829 -7.5317,35.05208 -8.2907,43.66677 -8.2001,93.07652 0.1048,57.20618 1.6136,72.83747 10.682,110.66333 9.3772,39.11376 20.8528,70.54521 37.6593,103.14785 33.9616,65.88128 83.0736,121.97553 145.0297,165.64853 46.6887,32.91089 105.5717,59.99701 158.0059,72.68241 20.5008,4.95973 30.8985,6.56129 50.5859,7.79173 7.6773,0.47982 13.1886,1.36896 13.9157,2.245 0.7957,0.95868 1.1006,27.29124 0.8991,77.65865 l -0.3046,76.20816 -3.3577,0.3845 c -2.4414,0.2795 -6.1559,-1.3772 -13.611,-6.0708 -13.3607,-8.41154 -17.1779,-10.29184 -20.8937,-10.29184 -7.1907,0 -18.0991,8.86744 -23.031,18.72214 -8.088,16.1606 -0.3464,40.7602 16.5395,52.5563 l 6.5394,4.5682 16.0031,-5.3199 c 12.5076,-4.1577 18.0594,-5.3965 25.4169,-5.6711 l 9.4137,-0.3513 v 73.9728 73.9728 l -10.6521,0.1883 c -5.8586,0.103 -17.0433,-0.583 -24.8549,-1.5256 z m 88.6859,0.3679 c -0.9776,-2.5477 0,-143.7387 1.0008,-144.74 0.5055,-0.5051 5.5652,-1.1043 11.2439,-1.3315 9.5918,-0.3837 11.2907,-0.072 23.9356,4.398 7.486,2.6461 14.4099,5.0888 15.3863,5.4282 2.8033,0.9742 12.5017,-5.9159 17.0999,-12.1486 9.046,-12.2609 11.6694,-31.655 5.8572,-43.3012 -5.4203,-10.8613 -16.042,-19.78544 -23.5489,-19.78544 -3.6731,0 -9.0883,2.676 -21.4734,10.61144 -9.4425,6.05 -13.0183,7.0921 -15.5722,4.5382 -1.0762,-1.0762 -1.3916,-18.92194 -1.3022,-73.67695 0.065,-39.74115 0.4842,-73.57048 0.9318,-75.17628 1.0846,-3.89126 7.3599,-5.65467 25.5804,-7.18823 65.5069,-5.51349 146.4619,-39.18411 210.6746,-87.62314 36.9302,-27.85842 66.34,-57.39222 93.63,-94.02475 43.9649,-59.01583 72.5799,-128.76505 83.2669,-202.96321 3.22,-22.35594 4.5437,-87.73939 2.3842,-117.76473 -3.6662,-50.97468 -20.1663,-109.41734 -46.3367,-164.12337 -6.4661,-13.51652 -9.3168,-20.78039 -9.0539,-23.0694 0.8043,-7.00164 8.5831,-4.13168 20.6899,7.63356 4.4547,4.32902 9.9636,9.39289 12.2419,11.25304 6.4057,5.22989 25.1133,25.89226 38.2587,42.25648 43.4716,54.11642 68.295,112.76006 77.0627,182.05626 2.6365,20.83742 4.5815,63.36689 3.6904,80.6952 -0.9978,19.40184 -3.183,34.04417 -10.7609,72.10329 -3.445,17.30226 -6.0673,31.65577 -5.8273,31.89669 2.9626,2.97385 18.6109,-12.94955 30.9501,-31.49418 7.9476,-11.94442 15.6781,-29.72737 19.9106,-45.80112 1.7248,-6.55057 3.9855,-15.10574 5.0238,-19.01151 2.1126,-7.9468 5.7476,-15.97813 7.2316,-15.97813 2.5292,0 4.9438,5.00489 6.0256,12.48934 1.5527,10.74348 1.5722,61.94983 0.03,77.6321 -3.511,35.69201 -14.1226,69.83335 -34.1589,109.90107 -11.3217,22.64026 -24.561,44.64455 -38.1666,63.43407 -12.1516,16.78151 -15.8358,22.76113 -14.7146,23.88234 3.3096,3.30957 18.2631,-2.02686 33.7466,-12.04311 17.9844,-11.63405 27.0131,-20.14991 43.2553,-40.79817 4.6085,-5.85872 8.6352,-8.2736 11.1766,-6.70293 1.8529,1.14518 1.524,19.60147 -0.5809,32.58962 -5.6445,34.83054 -25.0248,69.74465 -54.5326,98.24184 -28.2254,27.2588 -54.8023,41.89427 -126.7924,69.82268 -17.2009,6.67302 -22.2601,9.38385 -17.7535,9.51246 0.8137,0.0232 6.8055,0.52725 13.3151,1.12005 12.4289,1.13185 45.6936,-0.13511 62.729,-2.38917 5.2077,-0.68906 14.1469,-2.38116 19.8648,-3.76021 11.2672,-2.71741 13.5541,-2.19106 12.2922,2.82922 -1.5903,6.32632 -35.727,39.25725 -55.8283,53.85617 -29.9461,21.74887 -74.5226,41.46301 -126.6415,56.00751 -10.6215,2.964 -83.3176,20.1193 -85.2565,20.1193 -0.3035,0 -0.5519,0.5515 -0.5519,1.2256 0,3.4673 31.8148,12.3051 51.2256,14.2299 6.6523,0.6597 29.9373,1.5797 51.7445,2.0446 39.0637,0.8327 39.6547,0.8818 40.0043,3.33 0.2664,1.8655 -2.094,4.5357 -9.4685,10.7113 -50.0264,41.8934 -135.1576,86.4708 -204.1606,106.9052 -46.07,13.6429 -146.511,28.5702 -148.9782,22.1406 z m -82.768,-359.09295 c -8.5102,-1.18794 -45.5884,-8.97005 -58.0624,-12.18637 -129.5783,-33.41034 -232.078,-116.96142 -291.1021,-237.28733 -17.2206,-35.10577 -27.0262,-64.23025 -36.6587,-108.88308 -5.7291,-26.55823 -6.5475,-35.06094 -7.2907,-75.75308 -0.7657,-41.92101 0.6205,-76.67787 3.7762,-94.6852 7.198,-41.07311 28.1814,-98.96161 49.2537,-135.87975 64.3295,-112.703754 161.2287,-187.7235436 289.1823,-223.886185 21.7344,-6.142644 37.4589,-8.781213 54.6374,-9.168121 10.1171,-0.22786 13.426,2.018831 13.426,9.11589 0,7.511567 -2.3911,8.508235 -35.507,14.800577 -60.8943,11.570525 -110.1337,32.0230034 -162.7401,67.597065 -82.9923,56.121969 -137.3224,126.624264 -168.0851,218.118154 -6.1675,18.34321 -13.181,44.44298 -15.9356,59.30237 -3.6423,19.64808 -4.9245,36.57673 -5.5646,73.4698 -0.9135,52.64737 1.0117,74.42411 9.5661,108.20744 13.447,53.10531 35.3338,100.91905 65.8251,143.80107 12.7423,17.92026 22.0192,28.98282 41.7044,49.7315 35.914,37.85432 75.1319,67.53251 119.6768,90.56549 46.2683,23.9241 78.5894,34.30916 132.7147,42.64226 9.3602,1.44108 15.7512,3.75078 17.4395,6.30251 0.4783,0.72288 0.8777,3.49534 0.8877,6.16103 0.03,7.98756 -3.835,9.77172 -17.1436,7.91396 z m 97.3482,-1.17734 c -1.1392,-1.26567 -2.0712,-3.99023 -2.0712,-6.05459 0,-7.66265 6.4322,-10.61805 32.548,-14.95493 47.3017,-7.85504 79.089,-18.401 120.0381,-39.82444 58.732,-30.72701 115.4078,-79.14263 155.7127,-133.0184 31.6091,-42.25206 55.9365,-94.30929 69.9675,-149.72099 8.5263,-33.67212 10.4947,-56.48736 9.5702,-110.92544 -0.841,-49.51832 -2.2448,-61.96308 -10.8902,-96.54142 -26.8948,-107.56818 -85.6421,-191.06992 -178.6992,-253.998034 -52.6063,-35.5740616 -101.8458,-56.02654 -162.7402,-67.597065 -20.3935,-3.874981 -28.8649,-5.988781 -33.1137,-8.262611 -3.7846,-2.025506 -2.9006,-9.025749 1.5563,-12.32386 3.0215,-2.235837 4.8589,-2.471639 18.3453,-2.3543 21.1554,0.184068 38.936,4.024121 75.3506,16.27344 26.1375,8.792256 38.5282,13.800323 59.2139,23.9331474 45.9688,22.5176346 89.6022,53.8306596 125.7217,90.2226476 49.7238,50.098865 85.8872,109.086875 108.6149,177.167295 15.9686,47.83359 19.4945,72.94279 19.4456,138.47712 -0.04,53.15177 -1.6656,68.86323 -11.1465,107.70443 -9.3651,38.36649 -17.8345,62.24125 -33.1687,93.50164 -59.0242,120.32591 -161.5239,203.87699 -291.1021,237.28733 -18.3742,4.73756 -52.9737,11.63997 -62.969,12.56193 -7.1011,0.655 -8.371,0.46137 -10.184,-1.5529 z m 70.9153,-62.6739 c -0.434,-0.43397 -0.7891,-5.4853 -0.7891,-11.22519 0,-9.71829 -0.2238,-10.68516 -3.2548,-14.05609 -2.2609,-2.51464 -7.0353,-5.05005 -15.6365,-8.30363 -6.81,-2.57603 -13.2516,-4.68369 -14.3145,-4.68369 -1.063,0 -4.9559,2.64542 -8.6507,5.87872 -7.1132,6.22468 -15.2205,9.48244 -18.4807,7.42618 -1.5798,-0.99645 -1.837,-11.83669 -2.1033,-88.66222 l -0.3035,-87.52698 4.5809,-6.13971 c 2.5195,-3.37684 7.6591,-9.09743 11.4214,-12.71243 l 6.8407,-6.57271 -0.8095,-13.53872 c -0.5106,-8.54088 -0.3632,-14.37243 0.3992,-15.79719 1.3745,-2.56808 16.2876,-9.13659 23.2837,-10.25532 3.9472,-0.63118 5.0976,-0.29551 7.5855,2.21321 1.613,1.62648 4.1828,6.22403 5.7109,10.21677 1.5819,4.13294 3.9755,8.04393 5.5579,9.08076 3.8821,2.54364 29.2657,3.82333 31.9328,1.60987 1.0304,-0.85518 3.9256,-5.06122 6.4339,-9.34678 2.5082,-4.28555 5.8087,-8.931 7.3343,-10.32322 4.5007,-4.10706 15.0352,-4.21821 24.9477,-0.26323 4.8997,1.95493 5.8584,7.19989 3.6621,20.03517 -0.9995,5.84156 -1.5043,11.8684 -1.1217,13.39297 0.8189,3.26262 20.0675,20.60921 23.9503,21.58375 1.4693,0.36874 7.3652,-0.71049 13.1022,-2.3983 12.8087,-3.76837 15.7821,-3.82135 19.5299,-0.34804 3.6494,3.38219 11.6132,16.80911 11.6132,19.57981 0,1.12892 -4.5256,6.19447 -10.0569,11.25677 -5.5312,5.06231 -10.3763,10.47691 -10.7667,12.03246 -0.3904,1.55554 0.1053,7.97934 1.1012,14.27513 2.2755,14.38263 4.3354,16.87381 17.6082,21.29406 12.2228,4.07057 14.3603,6.3111 13.5743,14.2281 -0.8755,8.81693 -5.4991,19.68151 -9.0931,21.36664 -1.6273,0.763 -7.8758,1.901 -13.8856,2.52888 -6.1579,0.64337 -12.1761,1.96024 -13.7894,3.01737 -2.7692,1.81445 -14.9332,21.60476 -14.9332,24.29574 0,0.73011 2.5096,4.92775 5.577,9.32805 4.6857,6.72213 5.5841,8.89087 5.6219,13.57211 0.04,5.02379 -0.4785,6.11383 -5.2811,11.08791 -2.9293,3.03401 -7.3841,7.03741 -9.8996,8.89643 -5.412,3.9998 -5.069,4.11923 -19.5741,-6.81518 -5.4696,-4.12326 -10.8455,-7.49683 -11.9462,-7.49683 -2.7379,0 -13.8406,3.89514 -19.8691,6.97065 -6.6204,3.37744 -8.2879,6.27738 -10.8773,18.91612 -1.2051,5.88211 -2.5355,11.25186 -2.9563,11.9328 -0.8428,1.36378 -31.6422,1.78318 -32.9763,0.44903 z m 27.7457,-79.71789 c 38.9787,-7.39215 57.1931,-54.20331 33.5745,-86.28687 -12.4116,-16.85993 -33.1774,-25.98213 -51.7132,-22.71711 -10.4784,1.84573 -22.8927,8.15745 -30.1078,15.3075 -22.5908,22.38738 -22.6252,54.84905 -0.083,77.4911 8.5376,8.57515 17.2142,13.27049 28.7599,15.56338 10.3916,2.0637 11.8244,2.11071 19.569,0.642 z M 2226.295,591.91543 c -4.1313,-4.84972 -7.0873,-9.63442 -17.9826,-29.10783 -3.6422,-6.50961 -7.6669,-13.16716 -8.9439,-14.79457 l -2.3218,-2.95891 h -33.4333 -33.4332 l -10.2567,20.62232 c -12.2011,24.53184 -15.6268,28.49563 -24.6273,28.49563 -7.693,0 -44.8109,-11.11359 -48.4168,-14.49662 -6.2887,-5.89995 -5.8499,-13.21417 2.3967,-39.94737 7.1977,-23.33283 7.0051,-21.88294 3.2726,-24.64247 -1.7907,-1.32399 -11.4521,-9.4307 -21.4697,-18.01492 -23.72,-20.32595 -27.4521,-22.88423 -32.236,-22.09688 -2.0522,0.33777 -12.5193,4.08496 -23.2601,8.32709 -23.8964,9.43795 -26.8172,10.08292 -30.9476,6.83397 -7.6101,-5.98614 -29.4143,-42.82695 -29.4143,-49.69909 0,-2.95012 2.0841,-5.05561 15.6823,-15.8437 19.4187,-15.40575 26.5971,-22.56029 28.2837,-28.18943 1.1163,-3.72602 0.7773,-6.42828 -2.3271,-18.54898 -1.9986,-7.80318 -4.2534,-19.97816 -5.0106,-27.05552 -0.7572,-7.07735 -1.8948,-13.84507 -2.5279,-15.03936 -1.5668,-2.95574 -5.691,-4.52445 -30.0747,-11.43966 -11.542,-3.2733 -21.7751,-6.6068 -22.7402,-7.40776 -1.4793,-1.22768 -1.6312,-4.4301 -0.9681,-20.39963 0.4327,-10.41884 1.311,-21.60636 1.9519,-24.86116 1.676,-8.51221 5.8163,-18.16512 8.087,-18.85461 2.6933,-0.81782 8.0401,-0.80961 33.315,0.0511 20.3175,0.69189 22.0776,0.58598 24.4147,-1.46929 2.6444,-2.3255 29.675,-47.96627 32.3203,-54.57234 1.5124,-3.77669 1.3644,-4.09048 -10.3919,-22.04127 -13.0939,-19.99308 -17.9375,-28.49066 -17.9375,-31.4693 0,-1.07438 5.1929,-6.81968 11.5398,-12.76732 24.7848,-23.22583 33.6984,-28.26355 42.0943,-23.79064 3.8909,2.07283 16.9928,12.89819 25.6648,21.20532 4.2312,4.05322 9.9651,8.38169 12.742,9.61881 4.7531,2.11756 5.4696,2.14149 12.2335,0.40866 7.8229,-2.00414 42.5455,-14.78513 48.4193,-17.82264 2.0018,-1.03513 4.1193,-3.05479 4.7055,-4.48814 0.5863,-1.43335 2.1131,-11.66288 3.3928,-22.732285 1.2798,-11.0694 3.2343,-22.394102 4.3433,-25.166011 3.883,-9.704678 11.1663,-12.102782 37.3365,-12.293478 13.6326,-0.0993 16.8659,0.239329 21.3894,2.240264 7.4366,3.28953 8.8534,6.992432 11.6185,30.364285 3.6793,31.100685 3.221,30.297945 21.3538,37.399945 5.5332,2.16715 10.7317,4.45698 11.5522,5.0885 1.1681,0.89912 1.4249,12.34557 1.1836,52.75807 -0.287,48.04189 -0.4513,51.63734 -2.3766,52.00792 -1.1375,0.21897 -9.105,-2.61597 -17.7054,-6.29987 -23.3912,-10.01929 -31.1073,-11.75367 -52.4238,-11.78344 -15.0145,-0.0209 -19.195,0.39189 -27.0977,2.67597 -34.2302,9.89346 -59.4737,32.18282 -76.0292,67.13173 -7.2875,15.38407 -8.6849,22.61854 -8.6849,44.96185 0,22.69808 1.369,29.50391 8.986,44.67267 6.6952,13.33305 12.3177,20.77274 26.0374,34.45233 20.3089,20.24979 38.1856,29.39344 65.407,33.45491 20.166,3.00875 36.6848,-0.34014 65.9184,-13.36368 8.0925,-3.60523 15.5099,-6.24945 16.4831,-5.87603 1.5469,0.59362 1.7692,11.2132 1.7692,84.5125 0,63.62578 -0.3423,84.17591 -1.4203,85.25383 -2.512,2.51204 -5.4026,1.53064 -9.4354,-3.2035 z m 318.3756,-52.23247 c -2.1904,-1.27799 -3.6892,-5.37894 -5.7194,-15.64895 -1.7205,-8.70314 -5.1223,-12.68753 -14.3798,-16.84203 -12.7451,-5.71967 -15.6592,-5.4964 -28.8187,2.20799 -15.382,9.00553 -17.3349,8.95282 -27.4326,-0.74048 -9.9881,-9.58802 -10.7079,-10.96962 -7.7818,-14.93653 1.263,-1.71206 4.5438,-7.21166 7.2909,-12.22134 l 4.9945,-9.1085 -6.8772,-12.06244 c -3.7826,-6.63433 -8.0686,-12.84474 -9.5245,-13.80092 -1.4561,-0.95617 -8.244,-2.36386 -15.0843,-3.1282 -8.2333,-0.91998 -13.0686,-2.02132 -14.3057,-3.25835 -2.3589,-2.35903 -3.9969,-9.31632 -4.0333,-17.13257 -0.039,-8.4625 2.6518,-11.49319 13.2312,-14.89982 6.5854,-2.12056 8.9148,-3.49723 10.6053,-6.26808 4.725,-7.74421 9.1123,-25.9526 7.6535,-31.7646 -0.4728,-1.88431 -3.0178,-4.03185 -7.7956,-6.57844 -3.9015,-2.07948 -7.9059,-4.94043 -8.8986,-6.35767 -2.6907,-3.84143 -2.2375,-11.92713 1.0297,-18.37477 5.058,-9.98123 6.3463,-10.98277 14.3271,-11.1374 3.9058,-0.0756 10.7689,0.8089 15.2514,1.96571 11.081,2.85975 14.8302,1.62348 25.0656,-8.26531 l 7.9526,-7.68324 -0.7903,-7.38722 c -0.4347,-4.06298 -1.1098,-10.36615 -1.5003,-14.00707 -0.6559,-6.1147 -0.4503,-6.90808 2.6939,-10.39725 2.8394,-3.15085 5.0081,-4.10659 13.0744,-5.76204 12.2409,-2.5122 14.2132,-1.61432 20.645,9.3985 2.5745,4.4081 5.8611,8.65672 7.3034,9.44138 1.4424,0.78465 7.4158,1.84015 13.2745,2.34552 5.8586,0.50537 12.2858,1.25004 14.2826,1.65482 3.4578,0.70093 3.845,0.36929 8.1369,-6.96954 6.8699,-11.74694 10.7782,-15.96364 15.6418,-16.87606 6.5158,-1.22237 16.8316,1.5636 20.917,5.64905 3.3933,3.39324 3.469,3.72337 2.7532,11.99594 -0.4049,4.67865 -1.077,10.7332 -1.4936,13.45455 -0.7265,4.74514 -0.5012,5.21894 5.4986,11.56281 12.3546,13.06321 17.2501,14.63128 34.4873,11.04678 12.579,-2.61584 12.6524,-2.61728 15.2131,-0.29987 3.4937,3.16181 7.804,10.95598 8.6711,15.67996 1.0141,5.52447 -2.0234,12.17573 -8.2074,17.97185 -7.6508,7.17092 -9.1845,10.78817 -8.517,20.08742 0.9733,13.55672 5.6294,19.83152 19.337,26.05922 9.3009,4.22563 11.8216,8.78876 10.6372,19.25679 -1.4686,12.98131 -3.0679,14.38673 -17.9048,15.73391 -15.8248,1.4369 -17.9871,3.17462 -27.7817,22.32674 l -3.7043,7.24344 7.183,13.27762 c 3.9505,7.3027 6.8811,14.06385 6.5124,15.02477 -0.6106,1.59109 -8.4849,8.03117 -15.8214,12.93981 -3.3675,2.25304 -10.8319,2.57246 -14.609,0.62515 -1.4219,-0.73303 -5.6057,-3.92866 -9.2973,-7.10139 -3.6916,-3.17274 -7.4185,-5.76861 -8.2821,-5.76861 -4.0832,0 -24.1439,7.73607 -27.2329,10.5019 -2.8269,2.53129 -3.9057,5.08873 -5.8046,13.76118 -3.1017,14.16568 -3.9108,14.80515 -18.675,14.75857 -6.2747,-0.0198 -12.3007,-0.55651 -13.391,-1.19269 z m 31.8658,-79.36595 c 31.3167,-10.71947 45.4203,-47.55445 29.875,-78.02573 -3.6426,-7.14017 -13.485,-17.20648 -21.2616,-21.74553 -21.9572,-12.81586 -46.8824,-9.38157 -65.3518,9.00443 -14.4576,14.39238 -19.7746,34.55778 -14.0204,53.17617 6.0313,19.51587 23.2986,35.29328 42.5605,38.88854 3.5306,0.659 6.6966,1.47545 7.0355,1.81434 1.0904,1.0904 14.7564,-0.91934 21.1628,-3.11222 z m -203.2757,29.80163 c -10.5344,-3.46235 -41.8345,-16.80075 -44.1166,-18.80003 -1.9916,-1.74487 -2.0832,-8.84695 -1.7754,-137.642 0.1786,-74.69121 0.684,-136.16138 1.1232,-136.60037 0.4392,-0.439 1.914,-0.44412 3.2775,-0.0118 3.7225,1.18152 18.4954,23.66555 28.958,44.07371 l 5.5258,10.77853 9.8196,0.81797 c 5.4007,0.44988 16.6974,0.49113 25.1038,0.0916 8.4064,-0.39946 17.9445,-0.85464 21.1959,-1.01151 l 5.9116,-0.28522 1.9009,5.91782 c 4.5751,14.24242 10.1089,55.80082 7.7421,58.14247 -0.7401,0.73224 -10.9326,4.13782 -22.6499,7.56797 -33.7118,9.86889 -34.7596,10.57514 -37.1649,25.05111 -3.8056,22.90472 -7.203,48.85953 -6.6313,50.66074 0.9271,2.92097 16.611,16.42821 30.5411,26.30239 6.6393,4.70628 12.4929,9.10515 13.0079,9.77526 5.5155,7.17766 -23.4715,57.63664 -32.9596,57.37409 -1.265,-0.035 -5.2295,-1.02644 -8.8097,-2.20319 z M 2328.761,191.29243 c -0.3486,-0.90809 -0.4649,-17.92558 -0.2589,-37.81665 0.3982,-38.40795 0.6653,-40.15903 5.714,-37.45698 5.5597,2.97541 16.6779,12.17686 21.83,18.0664 4.4768,5.11772 5.3789,6.94935 5.3789,10.92111 0,6.0423 -2.3774,10.43317 -16.343,30.18371 -13.0491,18.45417 -14.7678,20.15 -16.321,16.10241 z"
         id="path4453"
         inkscape:connector-curvature="0"
         sodipodi:nodetypes="csscscsscsssccsscccscccccscsccccssssssccsccscccsssscsscssssssssssssssssssssssssssssssssssssssscscssssscssccccsscccccssscscsssssscsssssscsscssssscsscssscsssssssscscsssssssssssssssssssssssccsssssssssssscssssscssssscscssssscsscscsscsscsscccssssccscsscsscsssssscccssssscccsccccssssssssssssssssssssssssssssssccccsssscscssssssssscsccccssscscscsccsccscccsscccssscssssscsssscssscsscccsccscsscscsssscsccsccscssscsssscscccccscsssc" />
    </g>
  </g>
</svg>
